G04*
G04 #@! TF.GenerationSoftware,Altium Limited,Altium Designer,20.1.8 (145)*
G04*
G04 Layer_Color=8388736*
%FSLAX44Y44*%
%MOMM*%
G71*
G04*
G04 #@! TF.SameCoordinates,D5C0B3DD-F8AF-49D1-A0DA-DDDA0C0BEC7C*
G04*
G04*
G04 #@! TF.FilePolarity,Positive*
G04*
G01*
G75*
%ADD17C,0.2540*%
%ADD89C,0.2540*%
D17*
X773090Y377350D02*
G03*
X808010Y342350I34960J-40D01*
G01*
Y902350D02*
G03*
X773090Y867350I40J-34960D01*
G01*
X1423010D02*
G03*
X1388010Y902350I-35000J0D01*
G01*
Y342350D02*
G03*
X1423010Y377350I0J35000D01*
G01*
X1423010Y523710D02*
Y723599D01*
X1423010Y723599D02*
Y773599D01*
Y867350D01*
X1423010Y473710D02*
Y523710D01*
Y377350D02*
Y473710D01*
X808010Y902350D02*
X1388010D01*
X792480Y708660D02*
X994410D01*
X1038860Y664210D01*
Y538480D02*
Y664210D01*
Y538480D02*
X1056640Y520700D01*
Y433070D02*
Y520700D01*
X1027430Y403860D02*
X1056640Y433070D01*
X1019782Y403873D02*
X1027242D01*
X1019782D02*
Y413882D01*
X1043940Y438039D01*
Y515620D01*
X1026183Y533377D02*
X1043940Y515620D01*
X1026183Y533377D02*
Y658851D01*
X989074Y695960D02*
X1026183Y658851D01*
X792480Y695960D02*
X989074D01*
X792480D02*
Y708660D01*
X773090Y377350D02*
Y867350D01*
X808010Y342350D02*
X1388010D01*
D89*
X1423010Y723599D02*
D03*
M02*
