G04*
G04 #@! TF.GenerationSoftware,Altium Limited,Altium Designer,20.1.8 (145)*
G04*
G04 Layer_Color=128*
%FSLAX44Y44*%
%MOMM*%
G71*
G04*
G04 #@! TF.SameCoordinates,D5C0B3DD-F8AF-49D1-A0DA-DDDA0C0BEC7C*
G04*
G04*
G04 #@! TF.FilePolarity,Positive*
G04*
G01*
G75*
%ADD15C,0.0508*%
D15*
X1369640Y546100D02*
X1378640D01*
X1374140Y541600D02*
Y550600D01*
X1369640Y571500D02*
X1378640D01*
X1374140Y567000D02*
Y576000D01*
X1369640Y596900D02*
X1378640D01*
X1374140Y592400D02*
Y601400D01*
X1369640Y622300D02*
X1378640D01*
X1374140Y617800D02*
Y626800D01*
X1369640Y673100D02*
X1378640D01*
X1374140Y668600D02*
Y677600D01*
X1369640Y698500D02*
X1378640D01*
X1374140Y694000D02*
Y703000D01*
X1369640Y647700D02*
X1378640D01*
X1374140Y643200D02*
Y652200D01*
X1241372Y871220D02*
X1250372D01*
X1245872Y866720D02*
Y875720D01*
X1266772Y871220D02*
X1275772D01*
X1271272Y866720D02*
Y875720D01*
X1292172Y871220D02*
X1301172D01*
X1296672Y866720D02*
Y875720D01*
X1155928Y871220D02*
X1164928D01*
X1160427Y866720D02*
Y875720D01*
X1181328Y871220D02*
X1190328D01*
X1185827Y866720D02*
Y875720D01*
X1206728Y871220D02*
X1215727D01*
X1211227Y866720D02*
Y875720D01*
X1334810Y390050D02*
X1343810D01*
X1339310Y385550D02*
Y394550D01*
X1334810Y364650D02*
X1343810D01*
X1339310Y360150D02*
Y369150D01*
X1309410Y390050D02*
X1318410D01*
X1313910Y385550D02*
Y394550D01*
X1309410Y364650D02*
X1318410D01*
X1313910Y360150D02*
Y369150D01*
X1284010Y390050D02*
X1293010D01*
X1288510Y385550D02*
Y394550D01*
X1284010Y364650D02*
X1293010D01*
X1288510Y360150D02*
Y369150D01*
X1258610Y390050D02*
X1267610D01*
X1263110Y385550D02*
Y394550D01*
X1258610Y364650D02*
X1267610D01*
X1263110Y360150D02*
Y369150D01*
X1233210Y390050D02*
X1242210D01*
X1237710Y385550D02*
Y394550D01*
X1233210Y364650D02*
X1242210D01*
X1237710Y360150D02*
Y369150D01*
X1207810Y390050D02*
X1216810D01*
X1212310Y385550D02*
Y394550D01*
X1207810Y364650D02*
X1216810D01*
X1212310Y360150D02*
Y369150D01*
X1182410Y390050D02*
X1191410D01*
X1186910Y385550D02*
Y394550D01*
X1182410Y364650D02*
X1191410D01*
X1186910Y360150D02*
Y369150D01*
X1157010Y390050D02*
X1166010D01*
X1161510Y385550D02*
Y394550D01*
X1157010Y364650D02*
X1166010D01*
X1161510Y360150D02*
Y369150D01*
X1131610Y390050D02*
X1140610D01*
X1136110Y385550D02*
Y394550D01*
X1131610Y364650D02*
X1140610D01*
X1136110Y360150D02*
Y369150D01*
X1106210Y390050D02*
X1115210D01*
X1110710Y385550D02*
Y394550D01*
X1106210Y364650D02*
X1115210D01*
X1110710Y360150D02*
Y369150D01*
X1080810Y390050D02*
X1089810D01*
X1085310Y385550D02*
Y394550D01*
X1080810Y364650D02*
X1089810D01*
X1085310Y360150D02*
Y369150D01*
X1055410Y390050D02*
X1064410D01*
X1059910Y385550D02*
Y394550D01*
X1055410Y364650D02*
X1064410D01*
X1059910Y360150D02*
Y369150D01*
X1030010Y390050D02*
X1039010D01*
X1034510Y385550D02*
Y394550D01*
X1030010Y364650D02*
X1039010D01*
X1034510Y360150D02*
Y369150D01*
X1004610Y390050D02*
X1013610D01*
X1009110Y385550D02*
Y394550D01*
X1004610Y364650D02*
X1013610D01*
X1009110Y360150D02*
Y369150D01*
X979210Y390050D02*
X988210D01*
X983710Y385550D02*
Y394550D01*
X979210Y364650D02*
X988210D01*
X983710Y360150D02*
Y369150D01*
X953810Y390050D02*
X962810D01*
X958310Y385550D02*
Y394550D01*
X953810Y364650D02*
X962810D01*
X958310Y360150D02*
Y369150D01*
X852210Y364650D02*
X861210D01*
X856710Y360150D02*
Y369150D01*
X852210Y390050D02*
X861210D01*
X856710Y385550D02*
Y394550D01*
X877610Y364650D02*
X886610D01*
X882110Y360150D02*
Y369150D01*
X877610Y390050D02*
X886610D01*
X882110Y385550D02*
Y394550D01*
X903010Y364650D02*
X912010D01*
X907510Y360150D02*
Y369150D01*
X903010Y390050D02*
X912010D01*
X907510Y385550D02*
Y394550D01*
X928410Y364650D02*
X937410D01*
X932910Y360150D02*
Y369150D01*
X928410Y390050D02*
X937410D01*
X932910Y385550D02*
Y394550D01*
X816210Y426050D02*
X825210D01*
X820710Y421550D02*
Y430550D01*
X816210Y451450D02*
X825210D01*
X820710Y446950D02*
Y455950D01*
X790810Y426050D02*
X799810D01*
X795310Y421550D02*
Y430550D01*
X790810Y451450D02*
X799810D01*
X795310Y446950D02*
Y455950D01*
X794260Y867350D02*
X821760D01*
X808010Y853600D02*
Y881100D01*
X794260Y377350D02*
X821760D01*
X808010Y363600D02*
Y391100D01*
X1374260Y867350D02*
X1401760D01*
X1388010Y853600D02*
Y881100D01*
X1374260Y377350D02*
X1401760D01*
X1388010Y363600D02*
Y391100D01*
X1382800Y711200D02*
X1385800D01*
X1384300Y709700D02*
Y712700D01*
X1344700Y685800D02*
X1347700D01*
X1346200Y684300D02*
Y687300D01*
X1395500Y482600D02*
X1398500D01*
X1397000Y481100D02*
Y484100D01*
X1332000Y660400D02*
X1335000D01*
X1333500Y658900D02*
Y661900D01*
X1141500Y736600D02*
X1144500D01*
X1143000Y735100D02*
Y738100D01*
X1408200Y457200D02*
X1411200D01*
X1409700Y455700D02*
Y458700D01*
X1319300Y533400D02*
X1322300D01*
X1320800Y531900D02*
Y534900D01*
X1332000Y762000D02*
X1335000D01*
X1333500Y760500D02*
Y763500D01*
X1408200Y711200D02*
X1411200D01*
X1409700Y709700D02*
Y712700D01*
X1408200Y812800D02*
X1411200D01*
X1409700Y811300D02*
Y814300D01*
X1230400Y863600D02*
X1233400D01*
X1231900Y862100D02*
Y865100D01*
X1255800Y558800D02*
X1258800D01*
X1257300Y557300D02*
Y560300D01*
X1281200Y609600D02*
X1284200D01*
X1282700Y608100D02*
Y611100D01*
X1232528Y556672D02*
X1235528D01*
X1234028Y555172D02*
Y558172D01*
X1230400Y609600D02*
X1233400D01*
X1231900Y608100D02*
Y611100D01*
X1255800Y609600D02*
X1258800D01*
X1257300Y608100D02*
Y611100D01*
X1293900Y584200D02*
X1296900D01*
X1295400Y582700D02*
Y585700D01*
X1332000Y508000D02*
X1335000D01*
X1333500Y506500D02*
Y509500D01*
X1293900Y533400D02*
X1296900D01*
X1295400Y531900D02*
Y534900D01*
X1395500Y431800D02*
X1398500D01*
X1397000Y430300D02*
Y433300D01*
X1395500Y736600D02*
X1398500D01*
X1397000Y735100D02*
Y738100D01*
X1357400Y711200D02*
X1360400D01*
X1358900Y709700D02*
Y712700D01*
X1293900Y482600D02*
X1296900D01*
X1295400Y481100D02*
Y484100D01*
X1141500Y787400D02*
X1144500D01*
X1143000Y785900D02*
Y788900D01*
X1408200Y508000D02*
X1411200D01*
X1409700Y506500D02*
Y509500D01*
X1357400Y660400D02*
X1360400D01*
X1358900Y658900D02*
Y661900D01*
X811300Y736600D02*
X814300D01*
X812800Y735100D02*
Y738100D01*
X1306600Y812800D02*
X1309600D01*
X1308100Y811300D02*
Y814300D01*
X989100Y787400D02*
X992100D01*
X990600Y785900D02*
Y788900D01*
X1141500Y838200D02*
X1144500D01*
X1143000Y836700D02*
Y839700D01*
X1243100Y584200D02*
X1246100D01*
X1244600Y582700D02*
Y585700D01*
X1319300Y685800D02*
X1322300D01*
X1320800Y684300D02*
Y687300D01*
X1332000Y609600D02*
X1335000D01*
X1333500Y608100D02*
Y611100D01*
X1319300Y584200D02*
X1322300D01*
X1320800Y582700D02*
Y585700D01*
X1408200Y660400D02*
X1411200D01*
X1409700Y658900D02*
Y661900D01*
X785900Y736600D02*
X788900D01*
X787400Y735100D02*
Y738100D01*
X1408200Y762000D02*
X1411200D01*
X1409700Y760500D02*
Y763500D01*
X1065300Y635000D02*
X1068300D01*
X1066800Y633500D02*
Y636500D01*
X1332000Y558800D02*
X1335000D01*
X1333500Y557300D02*
Y560300D01*
X887500Y736600D02*
X890500D01*
X889000Y735100D02*
Y738100D01*
X1408200Y609600D02*
X1411200D01*
X1409700Y608100D02*
Y611100D01*
X1065300Y584200D02*
X1068300D01*
X1066800Y582700D02*
Y585700D01*
X1268500Y584200D02*
X1271500D01*
X1270000Y582700D02*
Y585700D01*
X824000Y762000D02*
X827000D01*
X825500Y760500D02*
Y763500D01*
X1382800Y457200D02*
X1385800D01*
X1384300Y455700D02*
Y458700D01*
X1217700Y584200D02*
X1220700D01*
X1219200Y582700D02*
Y585700D01*
X1344700Y635000D02*
X1347700D01*
X1346200Y633500D02*
Y636500D01*
X1395500Y685800D02*
X1398500D01*
X1397000Y684300D02*
Y687300D01*
X1332000Y711200D02*
X1335000D01*
X1333500Y709700D02*
Y712700D01*
X925600Y762000D02*
X928600D01*
X927100Y760500D02*
Y763500D01*
X887500Y838200D02*
X890500D01*
X889000Y836700D02*
Y839700D01*
X1128800Y558800D02*
X1131800D01*
X1130300Y557300D02*
Y560300D01*
X1281200Y558800D02*
X1284200D01*
X1282700Y557300D02*
Y560300D01*
X1306600Y558800D02*
X1309600D01*
X1308100Y557300D02*
Y560300D01*
X900200Y762000D02*
X903200D01*
X901700Y760500D02*
Y763500D01*
X1306600Y609600D02*
X1309600D01*
X1308100Y608100D02*
Y611100D01*
X874800Y762000D02*
X877800D01*
X876300Y760500D02*
Y763500D01*
X1319300Y838200D02*
X1322300D01*
X1320800Y836700D02*
Y839700D01*
X1395500Y787400D02*
X1398500D01*
X1397000Y785900D02*
Y788900D01*
X1128800Y812800D02*
X1131800D01*
X1130300Y811300D02*
Y814300D01*
X1103400Y812800D02*
X1106400D01*
X1104900Y811300D02*
Y814300D01*
X798600Y762000D02*
X801600D01*
X800100Y760500D02*
Y763500D01*
X1319300Y635000D02*
X1322300D01*
X1320800Y633500D02*
Y636500D01*
X1116100Y787400D02*
X1119100D01*
X1117600Y785900D02*
Y788900D01*
X912900Y736600D02*
X915900D01*
X914400Y735100D02*
Y738100D01*
X1319300Y787400D02*
X1322300D01*
X1320800Y785900D02*
Y788900D01*
X1306600Y660400D02*
X1309600D01*
X1308100Y658900D02*
Y661900D01*
X849400Y762000D02*
X852400D01*
X850900Y760500D02*
Y763500D01*
X1223722Y703380D02*
X1226722D01*
X1225222Y701880D02*
Y704880D01*
X1195844Y645533D02*
X1198844D01*
X1197344Y644033D02*
Y647033D01*
X1196110Y652780D02*
X1199110D01*
X1197610Y651280D02*
Y654280D01*
X1189760Y657860D02*
X1192760D01*
X1191260Y656360D02*
Y659360D01*
X1178330Y671830D02*
X1181330D01*
X1179830Y670330D02*
Y673330D01*
X1183410Y697230D02*
X1186410D01*
X1184910Y695730D02*
Y698730D01*
X1183410Y679450D02*
X1186410D01*
X1184910Y677950D02*
Y680950D01*
X1201391Y741881D02*
X1204391D01*
X1202891Y740381D02*
Y743381D01*
X1133880Y723900D02*
X1136880D01*
X1135380Y722400D02*
Y725400D01*
X1137690Y713740D02*
X1140690D01*
X1139190Y712240D02*
Y715240D01*
X1281200Y660720D02*
X1284200D01*
X1282700Y659220D02*
Y662220D01*
X1262150Y680720D02*
X1265150D01*
X1263650Y679220D02*
Y682220D01*
X1165322Y703479D02*
X1168322D01*
X1166822Y701979D02*
Y704979D01*
X1142770Y722630D02*
X1145770D01*
X1144270Y721130D02*
Y724130D01*
X928140Y662940D02*
X931140D01*
X929640Y661440D02*
Y664440D01*
X1017040Y701040D02*
X1020040D01*
X1018540Y699540D02*
Y702540D01*
X1009420Y708660D02*
X1012420D01*
X1010920Y707160D02*
Y710160D01*
X1019580Y708660D02*
X1022580D01*
X1021080Y707160D02*
Y710160D01*
X999841Y717766D02*
X1002841D01*
X1001341Y716265D02*
Y719266D01*
X980210Y726440D02*
X983210D01*
X981710Y724940D02*
Y727940D01*
X981480Y552450D02*
X984480D01*
X982980Y550950D02*
Y553950D01*
X1271040Y772160D02*
X1274040D01*
X1272540Y770660D02*
Y773660D01*
X1175383Y598787D02*
X1178383D01*
X1176883Y597287D02*
Y600287D01*
X1145160Y649051D02*
X1148160D01*
X1146660Y647551D02*
Y650551D01*
X1123843Y601857D02*
X1126843D01*
X1125343Y600357D02*
Y603357D01*
X1185950Y651510D02*
X1188950D01*
X1187450Y650010D02*
Y653010D01*
X1166492Y598320D02*
X1169492D01*
X1167992Y596820D02*
Y599820D01*
X1155266Y470966D02*
X1158266D01*
X1156766Y469466D02*
Y472466D01*
X1163090Y469900D02*
X1166090D01*
X1164590Y468400D02*
Y471400D01*
X1137162Y576667D02*
X1140162D01*
X1138662Y575167D02*
Y578167D01*
X1155946Y419576D02*
X1158946D01*
X1157446Y418076D02*
Y421076D01*
X1165630Y416560D02*
X1168630D01*
X1167130Y415060D02*
Y418060D01*
X1249450Y702460D02*
X1252450D01*
X1250950Y700960D02*
Y703960D01*
X1233024Y745452D02*
X1236024D01*
X1234524Y743952D02*
Y746952D01*
X1234961Y778903D02*
X1237961D01*
X1236461Y777403D02*
Y780403D01*
X1242802Y784659D02*
X1245802D01*
X1244302Y783159D02*
Y786159D01*
X1155470Y783590D02*
X1158470D01*
X1156970Y782090D02*
Y785090D01*
X1182140Y415290D02*
X1185140D01*
X1183640Y413790D02*
Y416790D01*
X1064030Y684530D02*
X1067030D01*
X1065530Y683030D02*
Y686030D01*
X1158792Y676048D02*
X1161792D01*
X1160292Y674548D02*
Y677548D01*
X1166900Y674370D02*
X1169900D01*
X1168400Y672870D02*
Y675870D01*
X1173206Y759460D02*
X1176206D01*
X1174706Y757960D02*
Y760960D01*
X1166711Y759649D02*
X1169711D01*
X1168211Y758149D02*
Y761149D01*
X1314220Y745490D02*
X1317220D01*
X1315720Y743990D02*
Y746990D01*
X1321840Y745490D02*
X1324840D01*
X1323340Y743990D02*
Y746990D01*
X1329460Y745490D02*
X1332460D01*
X1330960Y743990D02*
Y746990D01*
X1251459Y760189D02*
X1254459D01*
X1252959Y758689D02*
Y761689D01*
X1257954Y760000D02*
X1260954D01*
X1259454Y758500D02*
Y761500D01*
X1372640Y422910D02*
X1375640D01*
X1374140Y421410D02*
Y424410D01*
X1148413Y576430D02*
X1151413D01*
X1149913Y574930D02*
Y577930D01*
X995450Y760730D02*
X998450D01*
X996950Y759230D02*
Y762230D01*
X1013230Y760730D02*
X1016230D01*
X1014730Y759230D02*
Y762230D01*
X1052600Y762000D02*
X1055600D01*
X1054100Y760500D02*
Y763500D01*
X1036090Y762000D02*
X1039090D01*
X1037590Y760500D02*
Y763500D01*
X1083080Y762000D02*
X1086080D01*
X1084580Y760500D02*
Y763500D01*
X1067840Y762000D02*
X1070840D01*
X1069340Y760500D02*
Y763500D01*
X1146328Y767786D02*
X1149327D01*
X1147828Y766286D02*
Y769286D01*
X1163090Y549910D02*
X1166090D01*
X1164590Y548410D02*
Y551410D01*
X1170710Y534670D02*
X1173710D01*
X1172210Y533170D02*
Y536170D01*
X1208810Y491490D02*
X1211810D01*
X1210310Y489990D02*
Y492990D01*
X1234798Y456518D02*
X1237798D01*
X1236298Y455018D02*
Y458018D01*
X1330730Y426720D02*
X1333730D01*
X1332230Y425220D02*
Y428220D01*
X887500Y666750D02*
X890500D01*
X889000Y665250D02*
Y668250D01*
X811300Y666750D02*
X814300D01*
X812800Y665250D02*
Y668250D01*
X798600Y671830D02*
X801600D01*
X800100Y670330D02*
Y673330D01*
X798600Y660400D02*
X801600D01*
X800100Y658900D02*
Y661900D01*
X874800Y673100D02*
X877800D01*
X876300Y671600D02*
Y674600D01*
X874800Y660400D02*
X877800D01*
X876300Y658900D02*
Y661900D01*
X900200Y660400D02*
X903200D01*
X901700Y658900D02*
Y661900D01*
X912900Y662940D02*
X915900D01*
X914400Y661440D02*
Y664440D01*
X1084350Y440690D02*
X1087350D01*
X1085850Y439190D02*
Y442190D01*
X1112290Y599440D02*
X1115290D01*
X1113790Y597940D02*
Y600940D01*
X1084350Y429260D02*
X1087350D01*
X1085850Y427760D02*
Y430760D01*
X1084350Y415290D02*
X1087350D01*
X1085850Y413790D02*
Y416790D01*
X1140230Y534670D02*
X1143230D01*
X1141730Y533170D02*
Y536170D01*
X1217053Y414642D02*
X1220052D01*
X1218552Y413143D02*
Y416142D01*
X1108602Y414591D02*
X1111602D01*
X1110102Y413091D02*
Y416091D01*
X1198097Y470797D02*
X1201097D01*
X1199597Y469297D02*
Y472297D01*
X994180Y464820D02*
X997180D01*
X995680Y463320D02*
Y466320D01*
X1024660Y464820D02*
X1027660D01*
X1026160Y463320D02*
Y466320D01*
X1009420Y464820D02*
X1012420D01*
X1010920Y463320D02*
Y466320D01*
X1050060Y692150D02*
X1053060D01*
X1051560Y690650D02*
Y693650D01*
X1189191Y468585D02*
X1192191D01*
X1190691Y467085D02*
Y470085D01*
X1254530Y471170D02*
X1257530D01*
X1256030Y469670D02*
Y472670D01*
X1149694Y413567D02*
X1152694D01*
X1151194Y412067D02*
Y415067D01*
X1263420Y501650D02*
X1266420D01*
X1264920Y500150D02*
Y503150D01*
X1155470Y546100D02*
X1158470D01*
X1156970Y544600D02*
Y547600D01*
X1245799Y502057D02*
X1248799D01*
X1247299Y500557D02*
Y503557D01*
X1150065Y520332D02*
X1153065D01*
X1151565Y518832D02*
Y521832D01*
X1155470Y534670D02*
X1158470D01*
X1156970Y533170D02*
Y536170D01*
X1107210Y656590D02*
X1110210D01*
X1108710Y655090D02*
Y658090D01*
X1089430Y614680D02*
X1092430D01*
X1090930Y613180D02*
Y616180D01*
X1130070Y656590D02*
X1133070D01*
X1131570Y655090D02*
Y658090D01*
X1089430Y627380D02*
X1092430D01*
X1090930Y625880D02*
Y628880D01*
X1369560Y775090D02*
X1372560D01*
X1371060Y773590D02*
Y776590D01*
X1369560Y790190D02*
X1372560D01*
X1371060Y788690D02*
Y791690D01*
X1169440Y520700D02*
X1172440D01*
X1170940Y519200D02*
Y522200D01*
X1272835Y471221D02*
X1275835D01*
X1274335Y469721D02*
Y472721D01*
X1236750Y471170D02*
X1239750D01*
X1238250Y469670D02*
Y472670D01*
X933220Y791210D02*
X936220D01*
X934720Y789710D02*
Y792710D01*
X933220Y769620D02*
X936220D01*
X934720Y768120D02*
Y771120D01*
X982750Y769620D02*
X985750D01*
X984250Y768120D02*
Y771120D01*
X983625Y781643D02*
X986625D01*
X985125Y780143D02*
Y783142D01*
X799870Y736600D02*
X802870D01*
X801370Y735100D02*
Y738100D01*
X799870Y750570D02*
X802870D01*
X801370Y749070D02*
Y752070D01*
X817650Y751840D02*
X820650D01*
X819150Y750340D02*
Y753340D01*
X839240Y750570D02*
X842240D01*
X840740Y749070D02*
Y752070D01*
X854480Y750570D02*
X857480D01*
X855980Y749070D02*
Y752070D01*
X874800Y750570D02*
X877800D01*
X876300Y749070D02*
Y752070D01*
X874800Y732790D02*
X877800D01*
X876300Y731290D02*
Y734290D01*
X896390Y810260D02*
X899390D01*
X897890Y808760D02*
Y811760D01*
X912900Y769620D02*
X915900D01*
X914400Y768120D02*
Y771120D01*
X911630Y810260D02*
X914630D01*
X913130Y808760D02*
Y811760D01*
X882420Y810260D02*
X885420D01*
X883920Y808760D02*
Y811760D01*
X912900Y791210D02*
X915900D01*
X914400Y789710D02*
Y792710D01*
X954810Y892810D02*
X957810D01*
X956310Y891310D02*
Y894310D01*
X971320Y881380D02*
X974320D01*
X972820Y879880D02*
Y882880D01*
X971320Y892810D02*
X974320D01*
X972820Y891310D02*
Y894310D01*
X940840Y892810D02*
X943840D01*
X942340Y891310D02*
Y894310D01*
X1014500Y431800D02*
X1017500D01*
X1016000Y430300D02*
Y433300D01*
X1083080Y797560D02*
X1086080D01*
X1084580Y796060D02*
Y799060D01*
X1067840Y797560D02*
X1070840D01*
X1069340Y796060D02*
Y799060D01*
X1052600Y797560D02*
X1055600D01*
X1054100Y796060D02*
Y799060D01*
X1037360Y797560D02*
X1040360D01*
X1038860Y796060D02*
Y799060D01*
X1037360Y787400D02*
X1040360D01*
X1038860Y785900D02*
Y788900D01*
X1037360Y774700D02*
X1040360D01*
X1038860Y773200D02*
Y776200D01*
X1052600Y787400D02*
X1055600D01*
X1054100Y785900D02*
Y788900D01*
X1067840Y787400D02*
X1070840D01*
X1069340Y785900D02*
Y788900D01*
X1083080Y787400D02*
X1086080D01*
X1084580Y785900D02*
Y788900D01*
X1083080Y774700D02*
X1086080D01*
X1084580Y773200D02*
Y776200D01*
X1067840Y774700D02*
X1070840D01*
X1069340Y773200D02*
Y776200D01*
X1052600Y774700D02*
X1055600D01*
X1054100Y773200D02*
Y776200D01*
X967925Y437425D02*
X970925D01*
X969425Y435925D02*
Y438925D01*
X900820Y673162D02*
X903820D01*
X902320Y671662D02*
Y674662D01*
X912900Y431800D02*
X915900D01*
X914400Y430300D02*
Y433300D01*
X874800Y457200D02*
X877800D01*
X876300Y455700D02*
Y458700D01*
X836700Y482600D02*
X839700D01*
X838200Y481100D02*
Y484100D01*
X993031Y436938D02*
X996031D01*
X994531Y435438D02*
Y438438D01*
X1009676Y449417D02*
X1012676D01*
X1011176Y447917D02*
Y450917D01*
X991640Y541020D02*
X994640D01*
X993140Y539520D02*
Y542520D01*
X991640Y520700D02*
X994640D01*
X993140Y519200D02*
Y522200D01*
X950492Y513540D02*
X953492D01*
X951992Y512040D02*
Y515040D01*
X948460Y494983D02*
X951460D01*
X949960Y493483D02*
Y496483D01*
X836698Y561903D02*
X839698D01*
X838198Y560403D02*
Y563403D01*
X902740Y563880D02*
X905740D01*
X904240Y562380D02*
Y565380D01*
X882420Y576580D02*
X885420D01*
X883920Y575080D02*
Y578080D01*
X867180Y561550D02*
X870180D01*
X868680Y560050D02*
Y563050D01*
X780951Y438909D02*
X783951D01*
X782451Y437409D02*
Y440409D01*
X780820Y449580D02*
X783820D01*
X782320Y448080D02*
Y451080D01*
X780820Y462280D02*
X783820D01*
X782320Y460780D02*
Y463780D01*
X780951Y473339D02*
X783951D01*
X782451Y471839D02*
Y474839D01*
X1001952Y517946D02*
X1004952D01*
X1003452Y516446D02*
Y519446D01*
X953540Y468630D02*
X956540D01*
X955040Y467130D02*
Y470130D01*
X1011960Y504190D02*
X1014960D01*
X1013460Y502690D02*
Y505690D01*
X804950Y538630D02*
X807950D01*
X806450Y537130D02*
Y540130D01*
X804950Y526517D02*
X807950D01*
X806450Y525018D02*
Y528018D01*
X804950Y585470D02*
X807950D01*
X806450Y583970D02*
Y586970D01*
X804950Y597583D02*
X807950D01*
X806450Y596082D02*
Y599082D01*
X956670Y600850D02*
X959670D01*
X958170Y599350D02*
Y602350D01*
X867122Y575390D02*
X870122D01*
X868622Y573890D02*
Y576890D01*
M02*
