G04*
G04 #@! TF.GenerationSoftware,Altium Limited,Altium Designer,20.1.8 (145)*
G04*
G04 Layer_Color=32896*
%FSLAX44Y44*%
%MOMM*%
G71*
G04*
G04 #@! TF.SameCoordinates,D5C0B3DD-F8AF-49D1-A0DA-DDDA0C0BEC7C*
G04*
G04*
G04 #@! TF.FilePolarity,Positive*
G04*
G01*
G75*
%ADD11C,0.2000*%
%ADD17C,0.2540*%
%ADD18C,0.1800*%
%ADD70C,0.5000*%
%ADD87C,0.0762*%
%ADD88C,0.2032*%
D11*
X934540Y698500D02*
X975540D01*
X934540Y655500D02*
X942540D01*
X934540D02*
Y741500D01*
X942540D01*
X967540D02*
X975540D01*
Y655500D02*
Y741500D01*
X967540Y655500D02*
X975540D01*
X842740Y351950D02*
Y402750D01*
X1352010Y351950D02*
Y402750D01*
X842740Y351950D02*
X1352010D01*
X842740Y402750D02*
X1352010D01*
X1045554Y700539D02*
X1048554D01*
Y746539D01*
X1045554D02*
X1048554D01*
X1026554D02*
X1029554D01*
X1026554Y700539D02*
Y746539D01*
Y700539D02*
X1029554D01*
X1026554Y723539D02*
X1048554D01*
X855780Y658040D02*
X863780D01*
Y744040D01*
X855780D02*
X863780D01*
X822780D02*
X830780D01*
X822780Y658040D02*
Y744040D01*
Y658040D02*
X830780D01*
X822780Y701040D02*
X863780D01*
X782610Y413350D02*
X833410D01*
X782610D02*
Y464150D01*
X833410Y413350D02*
Y464150D01*
X782610D02*
X833410D01*
D17*
X972814Y751842D02*
Y767077D01*
X965196D01*
X962657Y764538D01*
Y759460D01*
X965196Y756921D01*
X972814D01*
X967736D02*
X962657Y751842D01*
X957579D02*
X952500D01*
X955040D01*
Y767077D01*
X957579Y764538D01*
X934726Y767077D02*
X944883D01*
Y759460D01*
X939805Y761999D01*
X937265D01*
X934726Y759460D01*
Y754382D01*
X937265Y751842D01*
X942344D01*
X944883Y754382D01*
D18*
X861054Y753112D02*
Y768347D01*
X853437D01*
X850898Y765808D01*
Y760730D01*
X853437Y758191D01*
X861054D01*
X855976D02*
X850898Y753112D01*
X835662Y768347D02*
X845819D01*
Y760730D01*
X840741Y763269D01*
X838202D01*
X835662Y760730D01*
Y755652D01*
X838202Y753112D01*
X843280D01*
X845819Y755652D01*
X830584Y753112D02*
X825506D01*
X828045D01*
Y768347D01*
X830584Y765808D01*
D70*
X1348010Y409850D02*
G03*
X1348010Y409850I-2500J0D01*
G01*
D87*
X1166368Y806196D02*
X1180084D01*
X1167130Y806958D02*
X1179322D01*
X1165606Y805434D02*
X1180846D01*
X1165606Y804672D02*
X1181608D01*
X1164844Y803910D02*
X1181608D01*
X1164844Y803148D02*
X1182370D01*
X1167130Y789432D02*
X1177036D01*
X1164082Y776478D02*
X1181608D01*
X1164082Y775716D02*
X1180846D01*
X1164844Y774954D02*
X1180846D01*
X1165606Y774192D02*
X1180084D01*
X1166368Y773430D02*
X1179322D01*
X1167130Y772668D02*
X1177798D01*
X1164844Y786384D02*
X1173988D01*
X1145794D02*
X1150366D01*
X1105408D02*
X1112266D01*
X1225042Y806196D02*
X1239520D01*
X1201420D02*
X1217422D01*
X1223518Y786384D02*
X1232662D01*
X1305052Y806196D02*
X1310386D01*
X1305814Y786384D02*
X1311148D01*
X1265428D02*
X1271524D01*
X1303528Y765810D02*
X1310386D01*
X1282192D02*
X1289050D01*
Y745236D02*
X1295908D01*
X1106170Y803910D02*
X1125220D01*
X1106170Y803148D02*
X1114552D01*
X1164082Y802386D02*
X1171702D01*
X1106170D02*
X1113790D01*
X1164082Y801624D02*
X1170940D01*
X1105408D02*
X1113028D01*
X1164082Y800862D02*
X1170178D01*
X1105408D02*
X1112266D01*
X1164082Y800100D02*
X1170178D01*
X1105408D02*
X1112266D01*
X1164082Y799338D02*
X1170178D01*
X1105408D02*
X1112266D01*
X1164082Y798576D02*
X1170178D01*
X1105408D02*
X1112266D01*
X1166368Y797814D02*
X1170178D01*
X1105408D02*
X1112266D01*
X1105408Y797052D02*
X1112266D01*
X1105408Y796290D02*
X1112266D01*
X1105408Y795528D02*
X1112266D01*
X1105408Y794766D02*
X1112266D01*
X1105408Y794004D02*
X1112266D01*
X1105408Y793242D02*
X1112266D01*
X1146556Y792480D02*
X1157986D01*
X1105408D02*
X1112266D01*
X1146556Y791718D02*
X1157986D01*
X1105408D02*
X1112266D01*
X1146556Y790956D02*
X1151128D01*
X1105408D02*
X1112266D01*
X1146556Y790194D02*
X1151128D01*
X1105408D02*
X1112266D01*
X1146556Y789432D02*
X1151128D01*
X1105408D02*
X1112266D01*
X1166368Y788670D02*
X1176274D01*
X1145794D02*
X1151128D01*
X1105408D02*
X1112266D01*
X1165606Y787908D02*
X1175512D01*
X1145794D02*
X1151128D01*
X1105408D02*
X1112266D01*
X1164844Y787146D02*
X1174750D01*
X1145794D02*
X1150366D01*
X1105408D02*
X1112266D01*
X1164082Y785622D02*
X1172464D01*
X1145794D02*
X1150366D01*
X1105408D02*
X1112266D01*
X1164082Y784860D02*
X1172464D01*
X1140460D02*
X1150366D01*
X1105408D02*
X1112266D01*
X1163320Y784098D02*
X1171702D01*
X1140460D02*
X1150366D01*
X1105408D02*
X1112266D01*
X1163320Y783336D02*
X1170940D01*
X1140460D02*
X1149604D01*
X1105408D02*
X1112266D01*
X1163320Y782574D02*
X1170178D01*
X1140460D02*
X1149604D01*
X1105408D02*
X1112266D01*
X1163320Y781812D02*
X1170178D01*
X1141222D02*
X1149604D01*
X1105408D02*
X1112266D01*
X1163320Y781050D02*
X1170178D01*
X1141222D02*
X1149604D01*
X1105408D02*
X1112266D01*
X1163320Y780288D02*
X1170178D01*
X1141222D02*
X1149604D01*
X1105408D02*
X1112266D01*
X1163320Y779526D02*
X1170178D01*
X1141222D02*
X1148842D01*
X1105408D02*
X1112266D01*
X1163320Y778764D02*
X1170178D01*
X1141222D02*
X1148842D01*
X1105408D02*
X1113028D01*
X1163320Y778002D02*
X1170940D01*
X1141984D02*
X1148842D01*
X1105408D02*
X1113028D01*
X1163320Y777240D02*
X1171702D01*
X1141984D02*
X1148842D01*
X1106170D02*
X1113790D01*
X1141984Y776478D02*
X1148842D01*
X1106170D02*
X1125220D01*
X1141984Y775716D02*
X1148080D01*
X1142746Y774954D02*
X1148080D01*
X1142746Y774192D02*
X1148080D01*
X1142746Y773430D02*
X1148080D01*
X1142746Y772668D02*
X1147318D01*
X1142746Y771906D02*
X1147318D01*
X1146556Y763524D02*
X1151890D01*
X1146556Y762762D02*
X1148842D01*
X1146556Y762000D02*
X1148080D01*
X1106170D02*
X1108456D01*
X1146556Y759714D02*
X1150366D01*
X1146556Y758952D02*
X1148080D01*
X1106170D02*
X1108456D01*
X1146556Y758190D02*
X1148080D01*
X1146556Y757428D02*
X1151890D01*
X1227328Y807720D02*
X1237234D01*
X1201420D02*
X1217422D01*
X1225804Y806958D02*
X1237996D01*
X1201420D02*
X1217422D01*
X1225042Y805434D02*
X1239520D01*
X1201420D02*
X1217422D01*
X1224280Y804672D02*
X1240282D01*
X1201420D02*
X1217422D01*
X1223518Y803910D02*
X1241044D01*
X1201420D02*
X1217422D01*
X1223518Y803148D02*
X1241044D01*
X1201420D02*
X1217422D01*
X1223518Y802386D02*
X1230376D01*
X1223518Y801624D02*
X1229614D01*
X1222756Y800862D02*
X1229614D01*
X1222756Y800100D02*
X1229614D01*
X1222756Y799338D02*
X1228852D01*
X1222756Y798576D02*
X1228852D01*
X1225804Y797814D02*
X1228852D01*
X1202944Y793242D02*
X1217422D01*
X1202944Y792480D02*
X1217422D01*
X1228090Y791718D02*
X1238758D01*
X1202944D02*
X1217422D01*
X1227328Y790956D02*
X1237996D01*
X1202944D02*
X1217422D01*
X1226566Y790194D02*
X1237234D01*
X1202944D02*
X1217422D01*
X1225804Y789432D02*
X1235710D01*
X1202944D02*
X1217422D01*
X1225042Y788670D02*
X1234948D01*
X1202944D02*
X1217422D01*
X1224280Y787908D02*
X1234186D01*
X1224280Y787146D02*
X1233424D01*
X1222756Y785622D02*
X1231900D01*
X1222756Y784860D02*
X1231138D01*
X1222756Y784098D02*
X1230376D01*
X1222756Y783336D02*
X1229614D01*
X1221994Y782574D02*
X1229614D01*
X1221994Y781812D02*
X1229614D01*
X1221994Y781050D02*
X1228852D01*
X1221994Y780288D02*
X1228852D01*
X1221994Y779526D02*
X1228852D01*
X1221994Y778764D02*
X1229614D01*
X1222756Y778002D02*
X1229614D01*
X1222756Y777240D02*
X1230376D01*
X1222756Y776478D02*
X1240282D01*
X1201420D02*
X1217422D01*
X1223518Y775716D02*
X1240282D01*
X1201420D02*
X1217422D01*
X1223518Y774954D02*
X1239520D01*
X1201420D02*
X1217422D01*
X1224280Y774192D02*
X1238758D01*
X1201420D02*
X1217422D01*
X1225042Y773430D02*
X1237996D01*
X1201420D02*
X1217422D01*
X1226566Y772668D02*
X1237234D01*
X1201420D02*
X1217422D01*
X1228090Y771906D02*
X1234948D01*
X1201420D02*
X1216660D01*
X1225804Y763524D02*
X1228090D01*
X1225042Y762762D02*
X1228090D01*
X1224280Y762000D02*
X1228090D01*
X1224280Y761238D02*
X1228090D01*
X1223518Y760476D02*
X1228090D01*
X1225804Y759714D02*
X1228090D01*
X1225804Y758952D02*
X1228090D01*
X1225804Y758190D02*
X1228090D01*
X1225804Y757428D02*
X1228090D01*
X1225804Y756666D02*
X1228090D01*
X1289050Y819150D02*
X1294384D01*
X1289050Y818388D02*
X1294384D01*
X1288288Y817626D02*
X1293622D01*
X1287526Y816864D02*
X1293622D01*
X1287526Y816102D02*
X1292860D01*
X1286764Y815340D02*
X1292860D01*
X1286764Y814578D02*
X1292098D01*
X1286002Y813816D02*
X1291336D01*
X1286002Y813054D02*
X1291336D01*
X1285240Y812292D02*
X1290574D01*
X1285240Y811530D02*
X1290574D01*
X1284478Y810768D02*
X1289812D01*
X1284478Y810006D02*
X1289812D01*
X1283716Y809244D02*
X1289050D01*
X1303528Y808482D02*
X1309624D01*
X1283716D02*
X1289050D01*
X1304290Y807720D02*
X1309624D01*
X1305052Y806958D02*
X1310386D01*
X1305814Y805434D02*
X1311148D01*
X1305814Y804672D02*
X1311148D01*
X1306576Y803910D02*
X1311910D01*
X1306576Y803148D02*
X1311910D01*
X1307338Y802386D02*
X1312672D01*
X1307338Y801624D02*
X1312672D01*
X1308100Y800862D02*
X1313434D01*
X1308100Y800100D02*
X1313434D01*
X1308862Y799338D02*
X1314196D01*
X1308862Y798576D02*
X1314958D01*
X1309624Y797814D02*
X1314958D01*
X1327912Y794766D02*
X1330960D01*
X1327912Y794004D02*
X1331722D01*
X1327150Y793242D02*
X1331722D01*
X1309624D02*
X1314958D01*
X1326388Y792480D02*
X1331722D01*
X1309624D02*
X1314958D01*
X1325626Y791718D02*
X1331722D01*
X1308862D02*
X1314196D01*
X1324864Y790956D02*
X1330960D01*
X1308862D02*
X1314196D01*
X1324102Y790194D02*
X1330960D01*
X1308100D02*
X1313434D01*
X1262380D02*
X1268476D01*
X1323340Y789432D02*
X1330198D01*
X1307338D02*
X1313434D01*
X1262380D02*
X1269238D01*
X1323340Y788670D02*
X1329436D01*
X1307338D02*
X1312672D01*
X1263142D02*
X1269238D01*
X1306576Y787908D02*
X1311910D01*
X1263904D02*
X1270000D01*
X1306576Y787146D02*
X1311910D01*
X1264666D02*
X1270762D01*
X1305814Y785622D02*
X1311148D01*
X1266190D02*
X1272286D01*
X1305052Y784860D02*
X1310386D01*
X1266190D02*
X1273048D01*
X1305052Y784098D02*
X1310386D01*
X1266952D02*
X1273048D01*
X1304290Y783336D02*
X1309624D01*
X1267714D02*
X1273810D01*
X1303528Y782574D02*
X1309624D01*
X1283716D02*
X1289050D01*
X1268476D02*
X1274572D01*
X1283716Y781812D02*
X1289050D01*
X1284478Y781050D02*
X1289812D01*
X1284478Y780288D02*
X1289812D01*
X1285240Y779526D02*
X1290574D01*
X1285240Y778764D02*
X1290574D01*
X1286002Y778002D02*
X1291336D01*
X1286002Y777240D02*
X1292098D01*
X1286764Y776478D02*
X1292098D01*
X1287526Y775716D02*
X1292860D01*
X1287526Y774954D02*
X1292860D01*
X1288288Y774192D02*
X1293622D01*
X1288288Y773430D02*
X1293622D01*
X1309624Y772668D02*
X1315720D01*
X1289050D02*
X1294384D01*
X1308862Y771906D02*
X1314958D01*
X1289050D02*
X1294384D01*
X1308100Y771144D02*
X1314958D01*
X1308100Y770382D02*
X1314196D01*
X1307338Y769620D02*
X1313434D01*
X1306576Y768858D02*
X1312672D01*
X1305814Y768096D02*
X1311910D01*
X1305052Y767334D02*
X1311148D01*
X1304290Y766572D02*
X1311148D01*
X1303528Y765048D02*
X1309624D01*
X1282954D02*
X1289050D01*
X1283716Y764286D02*
X1289812D01*
X1284478Y763524D02*
X1290574D01*
X1285240Y762762D02*
X1291336D01*
X1286002Y762000D02*
X1292098D01*
X1286002Y761238D02*
X1292860D01*
X1286764Y760476D02*
X1292860D01*
X1287526Y759714D02*
X1293622D01*
X1288288Y758952D02*
X1294384D01*
X1309624Y758190D02*
X1316482D01*
X1289050D02*
X1295146D01*
X1308862Y757428D02*
X1315720D01*
X1308100Y756666D02*
X1314958D01*
X1307338Y755904D02*
X1314196D01*
X1306576Y755142D02*
X1313434D01*
X1305814Y754380D02*
X1312672D01*
X1305052Y753618D02*
X1311910D01*
X1304290Y752856D02*
X1311148D01*
X1303528Y752094D02*
X1310386D01*
X1282192D02*
X1289050D01*
X1302766Y751332D02*
X1309624D01*
X1282954D02*
X1289812D01*
X1283716Y750570D02*
X1290574D01*
X1284478Y749808D02*
X1291336D01*
X1285240Y749046D02*
X1292098D01*
X1286002Y748284D02*
X1292860D01*
X1286764Y747522D02*
X1293622D01*
X1287526Y746760D02*
X1294384D01*
X1288288Y745998D02*
X1295146D01*
X1107694Y806196D02*
X1123696D01*
X1119124Y786384D02*
X1125982D01*
X1132840Y806196D02*
X1140460D01*
X1139698Y786384D02*
X1145032D01*
X1132840D02*
X1138174D01*
X1149604Y806196D02*
X1157224D01*
X1151890Y786384D02*
X1157986D01*
X1188466Y806196D02*
X1196086D01*
X1188466Y786384D02*
X1196086D01*
X1209802D02*
X1217422D01*
X1282192Y806196D02*
X1287526D01*
X1281430Y786384D02*
X1286764D01*
X1292860Y826770D02*
X1299718D01*
X1293622Y806196D02*
X1298956D01*
X1292860Y765810D02*
X1299718D01*
X1296670Y745236D02*
X1303528D01*
X1321054Y786384D02*
X1327150D01*
X1113028Y808482D02*
X1118362D01*
X1109980Y807720D02*
X1121410D01*
X1109218Y806958D02*
X1122172D01*
X1106932Y805434D02*
X1123696D01*
X1106932Y804672D02*
X1124458D01*
X1116076Y803148D02*
X1125220D01*
X1117600Y802386D02*
X1125220D01*
X1118362Y801624D02*
X1125982D01*
X1119124Y800862D02*
X1125982D01*
X1119124Y800100D02*
X1125982D01*
X1119124Y799338D02*
X1125982D01*
X1119124Y798576D02*
X1125982D01*
X1119124Y797814D02*
X1125982D01*
X1119124Y797052D02*
X1125982D01*
X1119124Y796290D02*
X1125982D01*
X1119124Y795528D02*
X1125982D01*
X1119124Y794766D02*
X1125982D01*
X1119124Y794004D02*
X1125982D01*
X1119124Y793242D02*
X1125982D01*
X1119124Y792480D02*
X1125982D01*
X1119124Y791718D02*
X1125982D01*
X1119124Y790956D02*
X1125982D01*
X1119124Y790194D02*
X1125982D01*
X1119124Y789432D02*
X1125982D01*
X1119124Y788670D02*
X1125982D01*
X1119124Y787908D02*
X1125982D01*
X1119124Y787146D02*
X1125982D01*
X1119124Y785622D02*
X1125982D01*
X1119124Y784860D02*
X1125982D01*
X1119124Y784098D02*
X1125982D01*
X1119124Y783336D02*
X1125982D01*
X1119124Y782574D02*
X1125982D01*
X1119124Y781812D02*
X1125982D01*
X1119124Y781050D02*
X1125982D01*
X1119124Y780288D02*
X1125982D01*
X1119124Y779526D02*
X1125982D01*
X1118362Y778764D02*
X1125982D01*
X1118362Y778002D02*
X1125982D01*
X1117600Y777240D02*
X1125220D01*
X1106932Y775716D02*
X1124458D01*
X1106932Y774954D02*
X1124458D01*
X1107694Y774192D02*
X1123696D01*
X1108456Y773430D02*
X1122934D01*
X1109218Y772668D02*
X1121410D01*
X1111504Y771906D02*
X1119886D01*
X1121410Y764286D02*
X1122934D01*
X1108456D02*
X1110742D01*
X1121410Y763524D02*
X1122934D01*
X1106932D02*
X1112266D01*
X1121410Y762762D02*
X1122934D01*
X1109980D02*
X1112266D01*
X1106932D02*
X1108456D01*
X1121410Y762000D02*
X1122934D01*
X1110742D02*
X1113028D01*
X1121410Y761238D02*
X1122934D01*
X1111504D02*
X1113028D01*
X1121410Y760476D02*
X1122934D01*
X1111504D02*
X1113028D01*
X1121410Y759714D02*
X1122934D01*
X1111504D02*
X1113028D01*
X1121410Y758952D02*
X1122934D01*
X1110742D02*
X1113028D01*
X1121410Y758190D02*
X1122934D01*
X1110742D02*
X1113028D01*
X1106932D02*
X1108456D01*
X1117600Y757428D02*
X1122934D01*
X1106932D02*
X1112266D01*
X1117600Y756666D02*
X1122934D01*
X1107694D02*
X1111504D01*
X1132840Y807720D02*
X1140460D01*
X1132840Y806958D02*
X1140460D01*
X1132840Y805434D02*
X1141222D01*
X1132840Y804672D02*
X1141222D01*
X1132840Y803910D02*
X1141222D01*
X1132840Y803148D02*
X1141222D01*
X1132840Y802386D02*
X1141222D01*
X1132840Y801624D02*
X1141984D01*
X1132840Y800862D02*
X1141984D01*
X1132840Y800100D02*
X1141984D01*
X1132840Y799338D02*
X1141984D01*
X1132840Y798576D02*
X1142746D01*
X1132840Y797814D02*
X1142746D01*
X1132840Y797052D02*
X1142746D01*
X1132840Y796290D02*
X1142746D01*
X1132840Y795528D02*
X1142746D01*
X1132840Y794766D02*
X1143508D01*
X1132840Y794004D02*
X1143508D01*
X1138936Y793242D02*
X1143508D01*
X1132840D02*
X1138174D01*
X1138936Y792480D02*
X1143508D01*
X1132840D02*
X1138174D01*
X1138936Y791718D02*
X1143508D01*
X1132840D02*
X1138174D01*
X1138936Y790956D02*
X1144270D01*
X1132840D02*
X1138174D01*
X1138936Y790194D02*
X1144270D01*
X1132840D02*
X1138174D01*
X1139698Y789432D02*
X1144270D01*
X1132840D02*
X1138174D01*
X1139698Y788670D02*
X1144270D01*
X1132840D02*
X1138174D01*
X1139698Y787908D02*
X1145032D01*
X1132840D02*
X1138174D01*
X1139698Y787146D02*
X1145032D01*
X1132840D02*
X1138174D01*
X1140460Y785622D02*
X1145032D01*
X1132840D02*
X1138174D01*
X1132840Y784860D02*
X1138174D01*
X1132840Y784098D02*
X1138174D01*
X1132840Y783336D02*
X1138174D01*
X1132840Y782574D02*
X1138174D01*
X1132840Y781812D02*
X1138174D01*
X1132840Y781050D02*
X1138174D01*
X1132840Y780288D02*
X1138174D01*
X1132840Y779526D02*
X1138174D01*
X1132840Y778764D02*
X1138174D01*
X1132840Y778002D02*
X1138174D01*
X1132840Y777240D02*
X1138174D01*
X1132840Y776478D02*
X1138174D01*
X1132840Y775716D02*
X1138174D01*
X1132840Y774954D02*
X1138174D01*
X1132840Y774192D02*
X1138174D01*
X1132840Y773430D02*
X1138174D01*
X1132840Y772668D02*
X1138174D01*
X1132840Y771906D02*
X1138174D01*
X1132078Y764286D02*
X1133602D01*
X1132078Y763524D02*
X1133602D01*
X1132078Y762762D02*
X1133602D01*
X1132078Y762000D02*
X1133602D01*
X1132078Y761238D02*
X1133602D01*
X1132078Y760476D02*
X1133602D01*
X1132078Y759714D02*
X1133602D01*
X1132078Y758952D02*
X1133602D01*
X1132078Y758190D02*
X1133602D01*
X1128268Y757428D02*
X1133602D01*
X1128268Y756666D02*
X1133602D01*
X1149604Y807720D02*
X1157224D01*
X1149604Y806958D02*
X1157224D01*
X1149604Y805434D02*
X1157224D01*
X1149604Y804672D02*
X1157224D01*
X1148842Y803910D02*
X1157224D01*
X1148842Y803148D02*
X1157224D01*
X1148842Y802386D02*
X1157224D01*
X1148842Y801624D02*
X1157224D01*
X1148842Y800862D02*
X1157224D01*
X1148080Y800100D02*
X1157224D01*
X1148080Y799338D02*
X1157224D01*
X1148080Y798576D02*
X1157986D01*
X1148080Y797814D02*
X1157986D01*
X1148080Y797052D02*
X1157986D01*
X1147318Y796290D02*
X1157986D01*
X1147318Y795528D02*
X1157986D01*
X1147318Y794766D02*
X1157986D01*
X1147318Y794004D02*
X1157986D01*
X1147318Y793242D02*
X1157986D01*
X1151890Y790956D02*
X1157986D01*
X1151890Y790194D02*
X1157986D01*
X1151890Y789432D02*
X1157986D01*
X1151890Y788670D02*
X1157986D01*
X1151890Y787908D02*
X1157986D01*
X1151890Y787146D02*
X1157986D01*
X1151890Y785622D02*
X1157986D01*
X1151890Y784860D02*
X1157986D01*
X1152652Y784098D02*
X1157986D01*
X1152652Y783336D02*
X1157986D01*
X1152652Y782574D02*
X1157986D01*
X1152652Y781812D02*
X1157986D01*
X1152652Y781050D02*
X1157986D01*
X1152652Y780288D02*
X1157986D01*
X1152652Y779526D02*
X1157986D01*
X1152652Y778764D02*
X1157986D01*
X1152652Y778002D02*
X1157986D01*
X1152652Y777240D02*
X1157986D01*
X1152652Y776478D02*
X1157986D01*
X1152652Y775716D02*
X1157986D01*
X1152652Y774954D02*
X1157986D01*
X1152652Y774192D02*
X1157986D01*
X1152652Y773430D02*
X1157986D01*
X1152652Y772668D02*
X1157986D01*
X1152652Y771906D02*
X1157986D01*
X1159510Y764286D02*
X1162558D01*
X1148080D02*
X1151128D01*
X1157986Y763524D02*
X1163320D01*
X1161796Y762762D02*
X1164082D01*
X1157986D02*
X1160272D01*
X1150366D02*
X1151890D01*
X1162558Y762000D02*
X1164082D01*
X1157986D02*
X1159510D01*
X1150366D02*
X1152652D01*
X1162558Y761238D02*
X1164082D01*
X1149604D02*
X1151890D01*
X1162558Y760476D02*
X1164082D01*
X1147318D02*
X1151890D01*
X1162558Y759714D02*
X1164082D01*
X1162558Y758952D02*
X1164082D01*
X1157986D02*
X1159510D01*
X1151128D02*
X1152652D01*
X1161796Y758190D02*
X1164082D01*
X1157986D02*
X1159510D01*
X1150366D02*
X1152652D01*
X1157986Y757428D02*
X1163320D01*
X1158748Y756666D02*
X1162558D01*
X1147318D02*
X1151128D01*
X1170940Y808482D02*
X1175512D01*
X1168654Y807720D02*
X1177798D01*
X1174750Y802386D02*
X1182370D01*
X1175512Y801624D02*
X1182370D01*
X1175512Y800862D02*
X1182370D01*
X1175512Y800100D02*
X1182370D01*
X1175512Y799338D02*
X1182370D01*
X1175512Y798576D02*
X1182370D01*
X1175512Y797814D02*
X1182370D01*
X1174750Y797052D02*
X1182370D01*
X1173988Y796290D02*
X1182370D01*
X1173226Y795528D02*
X1182370D01*
X1172464Y794766D02*
X1181608D01*
X1171702Y794004D02*
X1181608D01*
X1170940Y793242D02*
X1180846D01*
X1170178Y792480D02*
X1180084D01*
X1169416Y791718D02*
X1179322D01*
X1168654Y790956D02*
X1178560D01*
X1167892Y790194D02*
X1177798D01*
X1176274Y783336D02*
X1180846D01*
X1176274Y782574D02*
X1182370D01*
X1176274Y781812D02*
X1182370D01*
X1176274Y781050D02*
X1182370D01*
X1176274Y780288D02*
X1182370D01*
X1175512Y779526D02*
X1182370D01*
X1175512Y778764D02*
X1182370D01*
X1174750Y778002D02*
X1182370D01*
X1173988Y777240D02*
X1181608D01*
X1168654Y771906D02*
X1176274D01*
X1177036Y764286D02*
X1183132D01*
X1170178D02*
X1171702D01*
X1177036Y763524D02*
X1183132D01*
X1170178D02*
X1171702D01*
X1179322Y762762D02*
X1180846D01*
X1170178D02*
X1171702D01*
X1179322Y762000D02*
X1180846D01*
X1170178D02*
X1171702D01*
X1179322Y761238D02*
X1180846D01*
X1170178D02*
X1171702D01*
X1179322Y760476D02*
X1180846D01*
X1170178D02*
X1171702D01*
X1179322Y759714D02*
X1180846D01*
X1170178D02*
X1171702D01*
X1179322Y758952D02*
X1180846D01*
X1170178D02*
X1171702D01*
X1179322Y758190D02*
X1180846D01*
X1170178D02*
X1171702D01*
X1179322Y757428D02*
X1180846D01*
X1170178D02*
X1171702D01*
X1179322Y756666D02*
X1180846D01*
X1170178D02*
X1171702D01*
X1188466Y807720D02*
X1196086D01*
X1188466Y806958D02*
X1196086D01*
X1188466Y805434D02*
X1196086D01*
X1188466Y804672D02*
X1196086D01*
X1188466Y803910D02*
X1196086D01*
X1188466Y803148D02*
X1196086D01*
X1188466Y802386D02*
X1196086D01*
X1188466Y801624D02*
X1196086D01*
X1188466Y800862D02*
X1196086D01*
X1188466Y800100D02*
X1196086D01*
X1188466Y799338D02*
X1196086D01*
X1188466Y798576D02*
X1196086D01*
X1188466Y797814D02*
X1196086D01*
X1188466Y797052D02*
X1196086D01*
X1188466Y796290D02*
X1196086D01*
X1188466Y795528D02*
X1196086D01*
X1188466Y794766D02*
X1196086D01*
X1188466Y794004D02*
X1196086D01*
X1188466Y793242D02*
X1196086D01*
X1188466Y792480D02*
X1196086D01*
X1188466Y791718D02*
X1196086D01*
X1188466Y790956D02*
X1196086D01*
X1188466Y790194D02*
X1196086D01*
X1188466Y789432D02*
X1196086D01*
X1188466Y788670D02*
X1196086D01*
X1188466Y787908D02*
X1196086D01*
X1188466Y787146D02*
X1196086D01*
X1188466Y785622D02*
X1196086D01*
X1188466Y784860D02*
X1196086D01*
X1188466Y784098D02*
X1196086D01*
X1188466Y783336D02*
X1196086D01*
X1188466Y782574D02*
X1196086D01*
X1188466Y781812D02*
X1196086D01*
X1188466Y781050D02*
X1196086D01*
X1188466Y780288D02*
X1196086D01*
X1188466Y779526D02*
X1196086D01*
X1188466Y778764D02*
X1196086D01*
X1188466Y778002D02*
X1196086D01*
X1188466Y777240D02*
X1196086D01*
X1188466Y776478D02*
X1196086D01*
X1188466Y775716D02*
X1196086D01*
X1188466Y774954D02*
X1196086D01*
X1188466Y774192D02*
X1196086D01*
X1188466Y773430D02*
X1196086D01*
X1188466Y772668D02*
X1196086D01*
X1189228Y771906D02*
X1196086D01*
X1201420Y764286D02*
X1203706D01*
X1193038D02*
X1194562D01*
X1188466D02*
X1189990D01*
X1201420Y763524D02*
X1203706D01*
X1193038D02*
X1194562D01*
X1188466D02*
X1189990D01*
X1201420Y762762D02*
X1203706D01*
X1192276D02*
X1194562D01*
X1188466D02*
X1190752D01*
X1201420Y762000D02*
X1203706D01*
X1192276D02*
X1193800D01*
X1189228D02*
X1190752D01*
X1201420Y761238D02*
X1203706D01*
X1189228D02*
X1193800D01*
X1201420Y760476D02*
X1203706D01*
X1189990D02*
X1193038D01*
X1201420Y759714D02*
X1203706D01*
X1190752D02*
X1192276D01*
X1201420Y758952D02*
X1203706D01*
X1190752D02*
X1192276D01*
X1201420Y758190D02*
X1203706D01*
X1190752D02*
X1192276D01*
X1198372Y757428D02*
X1203706D01*
X1190752D02*
X1192276D01*
X1198372Y756666D02*
X1203706D01*
X1190752D02*
X1192276D01*
X1209802Y802386D02*
X1217422D01*
X1209802Y801624D02*
X1217422D01*
X1209802Y800862D02*
X1217422D01*
X1209802Y800100D02*
X1217422D01*
X1209802Y799338D02*
X1217422D01*
X1209802Y798576D02*
X1217422D01*
X1209802Y797814D02*
X1217422D01*
X1209802Y797052D02*
X1217422D01*
X1209802Y796290D02*
X1217422D01*
X1209802Y795528D02*
X1217422D01*
X1209802Y794766D02*
X1217422D01*
X1209802Y794004D02*
X1217422D01*
X1209802Y787908D02*
X1217422D01*
X1209802Y787146D02*
X1217422D01*
X1209802Y785622D02*
X1217422D01*
X1209802Y784860D02*
X1217422D01*
X1209802Y784098D02*
X1217422D01*
X1209802Y783336D02*
X1217422D01*
X1209802Y782574D02*
X1217422D01*
X1209802Y781812D02*
X1217422D01*
X1209802Y781050D02*
X1217422D01*
X1209802Y780288D02*
X1217422D01*
X1209802Y779526D02*
X1217422D01*
X1209802Y778764D02*
X1217422D01*
X1209802Y778002D02*
X1217422D01*
X1209802Y777240D02*
X1217422D01*
X1225804Y764286D02*
X1227328D01*
X1221232D02*
X1222756D01*
X1211326D02*
X1212850D01*
X1221232Y763524D02*
X1222756D01*
X1211326D02*
X1213612D01*
X1221232Y762762D02*
X1222756D01*
X1211326D02*
X1213612D01*
X1221232Y762000D02*
X1222756D01*
X1210564D02*
X1213612D01*
X1221232Y761238D02*
X1222756D01*
X1212850D02*
X1214374D01*
X1210564D02*
X1212088D01*
X1221232Y760476D02*
X1222756D01*
X1212850D02*
X1214374D01*
X1209802D02*
X1212088D01*
X1221232Y759714D02*
X1225042D01*
X1212850D02*
X1215136D01*
X1209802D02*
X1211326D01*
X1221232Y758952D02*
X1225042D01*
X1209802D02*
X1215136D01*
X1221232Y758190D02*
X1224280D01*
X1213612D02*
X1215136D01*
X1209040D02*
X1211326D01*
X1221232Y757428D02*
X1223518D01*
X1213612D02*
X1215898D01*
X1209040D02*
X1210564D01*
X1221232Y756666D02*
X1223518D01*
X1214374D02*
X1215898D01*
X1209040D02*
X1210564D01*
X1229614Y808482D02*
X1234186D01*
Y802386D02*
X1241044D01*
X1234186Y801624D02*
X1241044D01*
X1234948Y800862D02*
X1241806D01*
X1234948Y800100D02*
X1241806D01*
X1234948Y799338D02*
X1241806D01*
X1234948Y798576D02*
X1241806D01*
X1234186Y797814D02*
X1241806D01*
X1234186Y797052D02*
X1241044D01*
X1233424Y796290D02*
X1241044D01*
X1232662Y795528D02*
X1241044D01*
X1231900Y794766D02*
X1241044D01*
X1231138Y794004D02*
X1240282D01*
X1229614Y793242D02*
X1239520D01*
X1228852Y792480D02*
X1239520D01*
X1234948Y783336D02*
X1239520D01*
X1234948Y782574D02*
X1241806D01*
X1234948Y781812D02*
X1241806D01*
X1234948Y781050D02*
X1241806D01*
X1234948Y780288D02*
X1241806D01*
X1234948Y779526D02*
X1241044D01*
X1234186Y778764D02*
X1241044D01*
X1233424Y778002D02*
X1241044D01*
X1232662Y777240D02*
X1241044D01*
X1235710Y764286D02*
X1237234D01*
X1235710Y763524D02*
X1237996D01*
X1234948Y762762D02*
X1237996D01*
X1234948Y762000D02*
X1237996D01*
X1234948Y761238D02*
X1238758D01*
X1237234Y760476D02*
X1238758D01*
X1234186D02*
X1236472D01*
X1237234Y759714D02*
X1238758D01*
X1234186D02*
X1235710D01*
X1233424Y758952D02*
X1239520D01*
X1237996Y758190D02*
X1239520D01*
X1233424D02*
X1235710D01*
X1237996Y757428D02*
X1240282D01*
X1233424D02*
X1234948D01*
X1238758Y756666D02*
X1240282D01*
X1233424D02*
X1234948D01*
X1261618Y794766D02*
X1264666D01*
X1260856Y794004D02*
X1265428D01*
X1260856Y793242D02*
X1265428D01*
X1260856Y792480D02*
X1266190D01*
X1260856Y791718D02*
X1266952D01*
X1261618Y790956D02*
X1267714D01*
X1282954Y807720D02*
X1288288D01*
X1282192Y806958D02*
X1288288D01*
X1281430Y805434D02*
X1287526D01*
X1281430Y804672D02*
X1286764D01*
X1280668Y803910D02*
X1286002D01*
X1280668Y803148D02*
X1286002D01*
X1279906Y802386D02*
X1285240D01*
X1279906Y801624D02*
X1285240D01*
X1279144Y800862D02*
X1284478D01*
X1279144Y800100D02*
X1284478D01*
X1278382Y799338D02*
X1283716D01*
X1278382Y798576D02*
X1283716D01*
X1277620Y797814D02*
X1282954D01*
X1276858Y797052D02*
X1282954D01*
X1276858Y796290D02*
X1282192D01*
X1276858Y795528D02*
X1282192D01*
X1276858Y794766D02*
X1282192D01*
X1276858Y794004D02*
X1282192D01*
X1277620Y793242D02*
X1282954D01*
X1277620Y792480D02*
X1282954D01*
X1278382Y791718D02*
X1283716D01*
X1278382Y790956D02*
X1284478D01*
X1279144Y790194D02*
X1284478D01*
X1279906Y789432D02*
X1285240D01*
X1279906Y788670D02*
X1285240D01*
X1280668Y787908D02*
X1286002D01*
X1280668Y787146D02*
X1286002D01*
X1281430Y785622D02*
X1286764D01*
X1282192Y784860D02*
X1287526D01*
X1282192Y784098D02*
X1288288D01*
X1282954Y783336D02*
X1288288D01*
X1269238Y781812D02*
X1275334D01*
X1270000Y781050D02*
X1276096D01*
X1270000Y780288D02*
X1276858D01*
X1270762Y779526D02*
X1277620D01*
X1271524Y778764D02*
X1277620D01*
X1272286Y778002D02*
X1278382D01*
X1273048Y777240D02*
X1279144D01*
X1273810Y776478D02*
X1279906D01*
X1274572Y775716D02*
X1280668D01*
X1274572Y774954D02*
X1281430D01*
X1275334Y774192D02*
X1281430D01*
X1276096Y773430D02*
X1282192D01*
X1276858Y772668D02*
X1282954D01*
X1277620Y771906D02*
X1283716D01*
X1278382Y771144D02*
X1284478D01*
X1278382Y770382D02*
X1285240D01*
X1279144Y769620D02*
X1285240D01*
X1279906Y768858D02*
X1286002D01*
X1280668Y768096D02*
X1286764D01*
X1281430Y767334D02*
X1287526D01*
X1282192Y766572D02*
X1288288D01*
X1273048Y765048D02*
X1276096D01*
X1272286Y764286D02*
X1276858D01*
X1272286Y763524D02*
X1277620D01*
X1272286Y762762D02*
X1278382D01*
X1272286Y762000D02*
X1279144D01*
X1273048Y761238D02*
X1279906D01*
X1273810Y760476D02*
X1280668D01*
X1274572Y759714D02*
X1281430D01*
X1275334Y758952D02*
X1282192D01*
X1276096Y758190D02*
X1282954D01*
X1276858Y757428D02*
X1283716D01*
X1277620Y756666D02*
X1284478D01*
X1278382Y755904D02*
X1285240D01*
X1279144Y755142D02*
X1286002D01*
X1279906Y754380D02*
X1286764D01*
X1280668Y753618D02*
X1287526D01*
X1281430Y752856D02*
X1288288D01*
X1294384Y829056D02*
X1298194D01*
X1294384Y828294D02*
X1298956D01*
X1293622Y827532D02*
X1298956D01*
X1292860Y826008D02*
X1299718D01*
X1292098Y825246D02*
X1300480D01*
X1292098Y824484D02*
X1300480D01*
X1291336Y823722D02*
X1301242D01*
X1291336Y822960D02*
X1301242D01*
X1296670Y822198D02*
X1302004D01*
X1290574D02*
X1295908D01*
X1296670Y821436D02*
X1302004D01*
X1290574D02*
X1295908D01*
X1297432Y820674D02*
X1302766D01*
X1289812D02*
X1295146D01*
X1297432Y819912D02*
X1302766D01*
X1289812D02*
X1295146D01*
X1298194Y819150D02*
X1303528D01*
X1298194Y818388D02*
X1304290D01*
X1298956Y817626D02*
X1304290D01*
X1299718Y816864D02*
X1305052D01*
X1299718Y816102D02*
X1305052D01*
X1300480Y815340D02*
X1305814D01*
X1300480Y814578D02*
X1305814D01*
X1301242Y813816D02*
X1306576D01*
X1301242Y813054D02*
X1306576D01*
X1302004Y812292D02*
X1307338D01*
X1302004Y811530D02*
X1307338D01*
X1302766Y810768D02*
X1308100D01*
X1302766Y810006D02*
X1308100D01*
X1303528Y809244D02*
X1308862D01*
X1294384Y806958D02*
X1298194D01*
X1293622Y805434D02*
X1298956D01*
X1293622Y804672D02*
X1298956D01*
X1293622Y803910D02*
X1298956D01*
X1293622Y803148D02*
X1298956D01*
X1303528Y781812D02*
X1308862D01*
X1302766Y781050D02*
X1308100D01*
X1302766Y780288D02*
X1308100D01*
X1302004Y779526D02*
X1307338D01*
X1302004Y778764D02*
X1307338D01*
X1301242Y778002D02*
X1306576D01*
X1301242Y777240D02*
X1306576D01*
X1300480Y776478D02*
X1305814D01*
X1299718Y775716D02*
X1305814D01*
X1299718Y774954D02*
X1305052D01*
X1298956Y774192D02*
X1304290D01*
X1298956Y773430D02*
X1304290D01*
X1298194Y772668D02*
X1303528D01*
X1298194Y771906D02*
X1303528D01*
X1297432Y771144D02*
X1302766D01*
X1289812D02*
X1295146D01*
X1296670Y770382D02*
X1302766D01*
X1289812D02*
X1295908D01*
X1296670Y769620D02*
X1302004D01*
X1290574D02*
X1295908D01*
X1291336Y768858D02*
X1302004D01*
X1291336Y768096D02*
X1301242D01*
X1292098Y767334D02*
X1300480D01*
X1292098Y766572D02*
X1300480D01*
X1292860Y765048D02*
X1299718D01*
X1302766Y764286D02*
X1308862D01*
X1293622D02*
X1298956D01*
X1302004Y763524D02*
X1308100D01*
X1293622D02*
X1298956D01*
X1301242Y762762D02*
X1307338D01*
X1294384D02*
X1298194D01*
X1300480Y762000D02*
X1307338D01*
X1295146D02*
X1297432D01*
X1299718Y761238D02*
X1306576D01*
X1299718Y760476D02*
X1305814D01*
X1298956Y759714D02*
X1305052D01*
X1298194Y758952D02*
X1304290D01*
X1297432Y758190D02*
X1303528D01*
X1296670Y757428D02*
X1302766D01*
X1289812D02*
X1295908D01*
X1289812Y756666D02*
X1302766D01*
X1290574Y755904D02*
X1302004D01*
X1291336Y755142D02*
X1301242D01*
X1292098Y754380D02*
X1300480D01*
X1292860Y753618D02*
X1299718D01*
X1293622Y752856D02*
X1298956D01*
X1294384Y752094D02*
X1298956D01*
X1294384Y751332D02*
X1298194D01*
X1302004Y750570D02*
X1308862D01*
X1301242Y749808D02*
X1308100D01*
X1300480Y749046D02*
X1307338D01*
X1299718Y748284D02*
X1306576D01*
X1298956Y747522D02*
X1305814D01*
X1298194Y746760D02*
X1305052D01*
X1297432Y745998D02*
X1304290D01*
X1289812Y744474D02*
X1302766D01*
X1290574Y743712D02*
X1302004D01*
X1291336Y742950D02*
X1301242D01*
X1292098Y742188D02*
X1300480D01*
X1292860Y741426D02*
X1299718D01*
X1293622Y740664D02*
X1298956D01*
X1294384Y739902D02*
X1298194D01*
X1310386Y797052D02*
X1315720D01*
X1310386Y796290D02*
X1315720D01*
X1311148Y795528D02*
X1315720D01*
X1310386Y794766D02*
X1315720D01*
X1310386Y794004D02*
X1315720D01*
X1322578Y787908D02*
X1328674D01*
X1321816Y787146D02*
X1327912D01*
X1320292Y785622D02*
X1327150D01*
X1319530Y784860D02*
X1326388D01*
X1319530Y784098D02*
X1325626D01*
X1318768Y783336D02*
X1324864D01*
X1318006Y782574D02*
X1324102D01*
X1317244Y781812D02*
X1323340D01*
X1316482Y781050D02*
X1322578D01*
X1315720Y780288D02*
X1322578D01*
X1315720Y779526D02*
X1321816D01*
X1314958Y778764D02*
X1321054D01*
X1314196Y778002D02*
X1320292D01*
X1313434Y777240D02*
X1319530D01*
X1312672Y776478D02*
X1318768D01*
X1311910Y775716D02*
X1318768D01*
X1311910Y774954D02*
X1318006D01*
X1311148Y774192D02*
X1317244D01*
X1310386Y773430D02*
X1316482D01*
Y765048D02*
X1319530D01*
X1315720Y764286D02*
X1320292D01*
X1314958Y763524D02*
X1320292D01*
X1314196Y762762D02*
X1320292D01*
X1313434Y762000D02*
X1320292D01*
X1312672Y761238D02*
X1319530D01*
X1311910Y760476D02*
X1318768D01*
X1311148Y759714D02*
X1318006D01*
X1310386Y758952D02*
X1317244D01*
D88*
X794920Y470030D02*
X790688D01*
X792804D01*
Y482726D01*
X794920Y480610D01*
X844552Y416560D02*
Y429256D01*
X850900Y422908D01*
X842436D01*
M02*
