G04*
G04 #@! TF.GenerationSoftware,Altium Limited,Altium Designer,20.1.8 (145)*
G04*
G04 Layer_Color=16711935*
%FSLAX44Y44*%
%MOMM*%
G71*
G04*
G04 #@! TF.SameCoordinates,D5C0B3DD-F8AF-49D1-A0DA-DDDA0C0BEC7C*
G04*
G04*
G04 #@! TF.FilePolarity,Negative*
G04*
G01*
G75*
%ADD66C,1.7032*%
%ADD67R,1.7032X1.7032*%
%ADD68R,1.7032X1.7032*%
%ADD69C,6.2032*%
%ADD71C,1.0000*%
%ADD85R,3.8532X1.8032*%
%ADD86R,1.8532X1.4032*%
G36*
X1076960Y431800D02*
X1066800D01*
Y529590D01*
X1076960D01*
X1076960Y431800D01*
D02*
G37*
G36*
X1041400Y755650D02*
X1041403Y755650D01*
X1042327Y755650D01*
X1042445Y755530D01*
X1042445Y730696D01*
X1032510Y730696D01*
X1032510Y755650D01*
X1041400Y755656D01*
X1041400Y755650D01*
D02*
G37*
D66*
X1374140Y546100D02*
D03*
Y571500D02*
D03*
Y596900D02*
D03*
Y622300D02*
D03*
Y673100D02*
D03*
Y647700D02*
D03*
X1245872Y871220D02*
D03*
X1271272D02*
D03*
X1160427D02*
D03*
X1185827D02*
D03*
X1339310Y364650D02*
D03*
X1313910Y390050D02*
D03*
Y364650D02*
D03*
X1288510Y390050D02*
D03*
Y364650D02*
D03*
X1263110Y390050D02*
D03*
Y364650D02*
D03*
X1237710Y390050D02*
D03*
Y364650D02*
D03*
X1212310Y390050D02*
D03*
Y364650D02*
D03*
X1186910Y390050D02*
D03*
Y364650D02*
D03*
X1161510Y390050D02*
D03*
Y364650D02*
D03*
X1136110Y390050D02*
D03*
Y364650D02*
D03*
X1110710Y390050D02*
D03*
Y364650D02*
D03*
X1085310Y390050D02*
D03*
Y364650D02*
D03*
X1059910Y390050D02*
D03*
Y364650D02*
D03*
X1034510Y390050D02*
D03*
Y364650D02*
D03*
X1009110Y390050D02*
D03*
Y364650D02*
D03*
X983710Y390050D02*
D03*
Y364650D02*
D03*
X958310Y390050D02*
D03*
Y364650D02*
D03*
X856710D02*
D03*
Y390050D02*
D03*
X882110Y364650D02*
D03*
Y390050D02*
D03*
X907510Y364650D02*
D03*
Y390050D02*
D03*
X932910Y364650D02*
D03*
Y390050D02*
D03*
X820710Y426050D02*
D03*
Y451450D02*
D03*
X795310Y426050D02*
D03*
D67*
X1374140Y698500D02*
D03*
D68*
X1296672Y871220D02*
D03*
X1211227D02*
D03*
X1339310Y390050D02*
D03*
X795310Y451450D02*
D03*
D69*
X808010Y867350D02*
D03*
Y377350D02*
D03*
X1388010Y867350D02*
D03*
Y377350D02*
D03*
D71*
X1071880Y520700D02*
Y527050D01*
X1054100Y544830D02*
X1071880Y527050D01*
X1054100Y544830D02*
Y667203D01*
X1037590Y683713D02*
X1054100Y667203D01*
X1037590Y683713D02*
Y711200D01*
D85*
X955040Y730250D02*
D03*
Y666750D02*
D03*
X843280Y669290D02*
D03*
Y732790D02*
D03*
D86*
X1037554Y709539D02*
D03*
Y737539D02*
D03*
M02*
