G04*
G04 #@! TF.GenerationSoftware,Altium Limited,Altium Designer,20.1.8 (145)*
G04*
G04 Layer_Color=3326705*
%FSLAX44Y44*%
%MOMM*%
G71*
G04*
G04 #@! TF.SameCoordinates,D5C0B3DD-F8AF-49D1-A0DA-DDDA0C0BEC7C*
G04*
G04*
G04 #@! TF.FilePolarity,Positive*
G04*
G01*
G75*
%ADD10C,0.2500*%
%ADD11C,0.2000*%
%ADD12C,0.3000*%
%ADD13C,0.1524*%
%ADD14C,0.1000*%
%ADD15C,0.0508*%
%ADD16C,0.1500*%
%ADD17C,0.2540*%
%ADD18C,0.1800*%
%ADD19R,0.6750X0.5500*%
G36*
X1106463Y632072D02*
Y627072D01*
X1104963D01*
X1101963Y630072D01*
Y632072D01*
X1106463D01*
D02*
G37*
G36*
X1165887Y631568D02*
Y626568D01*
X1164387D01*
X1161387Y629568D01*
Y631568D01*
X1165887D01*
D02*
G37*
G36*
X990600Y733310D02*
Y726440D01*
X986790D01*
X982980Y730250D01*
Y733310D01*
X990600D01*
D02*
G37*
G36*
X1130560Y866640D02*
Y861640D01*
X1129060D01*
X1126060Y864640D01*
Y866640D01*
X1130560D01*
D02*
G37*
G36*
X1208740Y631190D02*
Y635690D01*
X1209740D01*
X1212740Y632690D01*
Y631190D01*
X1208740D01*
D02*
G37*
G36*
X1180756Y786958D02*
Y782458D01*
X1179756D01*
X1176756Y785458D01*
Y786958D01*
X1180756D01*
D02*
G37*
G36*
X1264922D02*
Y782458D01*
X1263922D01*
X1260922Y785458D01*
Y786958D01*
X1264922D01*
D02*
G37*
G36*
X1386560Y796790D02*
Y791790D01*
X1385060D01*
X1382060Y794790D01*
Y796790D01*
X1386560D01*
D02*
G37*
D10*
X1268172Y792458D02*
G03*
X1268172Y792458I-1250J0D01*
G01*
X1134060Y875140D02*
G03*
X1134060Y875140I-1250J0D01*
G01*
X1207990Y625690D02*
G03*
X1207990Y625690I-1250J0D01*
G01*
X1390060Y805290D02*
G03*
X1390060Y805290I-1250J0D01*
G01*
X1169387Y640068D02*
G03*
X1169387Y640068I-1250J0D01*
G01*
X1109963Y640572D02*
G03*
X1109963Y640572I-1250J0D01*
G01*
X1184006Y792458D02*
G03*
X1184006Y792458I-1250J0D01*
G01*
X974885Y856393D02*
G03*
X974885Y856393I-1250J0D01*
G01*
X1033365D02*
G03*
X1033365Y856393I-1250J0D01*
G01*
X993120Y756920D02*
G03*
X993120Y756920I-1250J0D01*
G01*
D11*
X1260922Y786458D02*
G03*
X1264922Y782458I4000J0D01*
G01*
X1126060Y866140D02*
G03*
X1130560Y861640I4500J0D01*
G01*
X1212740Y631690D02*
G03*
X1208740Y635690I-4000J0D01*
G01*
X1382060Y796290D02*
G03*
X1386560Y791790I4500J0D01*
G01*
X1161387Y631068D02*
G03*
X1165887Y626568I4500J0D01*
G01*
X1101963Y631572D02*
G03*
X1106463Y627072I4500J0D01*
G01*
X1176756Y786458D02*
G03*
X1180756Y782458I4000J0D01*
G01*
X982980Y733310D02*
G03*
X989850Y726440I6870J0D01*
G01*
X1386840Y533400D02*
Y711200D01*
X1361440D02*
X1386840D01*
X1361440Y533400D02*
Y711200D01*
Y533400D02*
X1386840D01*
X1264922Y777958D02*
Y786958D01*
X1234922Y777958D02*
Y786958D01*
X1264922D01*
X1234922Y777958D02*
X1264922D01*
X1260922Y786458D02*
Y786958D01*
X1126060Y866140D02*
Y866640D01*
X1130560Y856640D02*
Y866640D01*
X1099560Y856640D02*
Y866640D01*
X1130560D01*
X1099560Y856640D02*
X1130560D01*
X1208740Y631190D02*
Y640190D01*
X1238740Y631190D02*
Y640190D01*
X1208740Y631190D02*
X1238740D01*
X1208740Y640190D02*
X1238740D01*
X1212740Y631190D02*
Y631690D01*
X1176756Y786458D02*
Y786958D01*
X1150756Y777958D02*
X1180756D01*
X1150756Y786958D02*
X1180756D01*
X1150756Y777958D02*
Y786958D01*
X1180756Y777958D02*
Y786958D01*
X1172322Y725873D02*
Y737873D01*
X1355560Y786790D02*
X1386560D01*
X1355560Y796790D02*
X1386560D01*
X1355560Y786790D02*
Y796790D01*
X1386560Y786790D02*
Y796790D01*
X1382060Y796290D02*
Y796790D01*
X1256422Y725873D02*
Y737873D01*
X1037365Y773893D02*
Y849893D01*
X991366Y773893D02*
Y849893D01*
X1030615D02*
X1037365D01*
X1030615Y773893D02*
X1037365D01*
X991366Y849893D02*
X998115D01*
X991366Y773893D02*
X998115D01*
Y844392D02*
Y849893D01*
X991366Y844392D02*
X998115D01*
X1030615D02*
X1037365D01*
X1030615D02*
Y849893D01*
X1309372Y858520D02*
Y883920D01*
X1233172Y858520D02*
X1309372D01*
X1233172D02*
Y883920D01*
X1309372D01*
X1223928Y858520D02*
Y883920D01*
X1147728Y858520D02*
X1223928D01*
X1147728D02*
Y883920D01*
X1223928D01*
X1134887Y621568D02*
X1165887D01*
X1134887Y631568D02*
X1165887D01*
X1134887Y621568D02*
Y631568D01*
X1165887Y621568D02*
Y631568D01*
X1161387Y631068D02*
Y631568D01*
X1337079Y432754D02*
Y468754D01*
X1293079D02*
X1337079D01*
X1293079Y432754D02*
Y468754D01*
Y432754D02*
X1337079D01*
X1101963Y631572D02*
Y632072D01*
X1106463Y622072D02*
Y632072D01*
X1075463Y622072D02*
Y632072D01*
X1106463D01*
X1075463Y622072D02*
X1106463D01*
X931550Y609100D02*
X950550D01*
X954050Y545350D02*
Y610350D01*
Y545350D02*
X989050D01*
Y610350D01*
X954050D02*
X989050D01*
X925334Y538860D02*
Y541860D01*
X971334D01*
Y538860D02*
Y541860D01*
Y519860D02*
Y522860D01*
X925334Y519860D02*
X971334D01*
X925334D02*
Y522860D01*
X948334Y519860D02*
Y541860D01*
X1008890Y525910D02*
Y536410D01*
X978640Y522410D02*
X1007640D01*
X978640Y513910D02*
Y522410D01*
Y513910D02*
X1007640D01*
Y522410D01*
X978885Y773893D02*
Y849893D01*
X932885Y773893D02*
Y849893D01*
X972135D02*
X978885D01*
X972135Y773893D02*
X978885D01*
X932885Y849893D02*
X939635D01*
X932885Y773893D02*
X939635D01*
Y844392D02*
Y849893D01*
X932885Y844392D02*
X939635D01*
X972135D02*
X978885D01*
X972135D02*
Y849893D01*
X978040Y442293D02*
Y445293D01*
X932040Y442293D02*
X978040D01*
X932040D02*
Y445293D01*
Y461293D02*
Y464293D01*
X978040D01*
Y461293D02*
Y464293D01*
X955040Y442293D02*
Y464293D01*
X862098Y822122D02*
X913898D01*
X862098Y858163D02*
X913898D01*
X942340Y671310D02*
Y733310D01*
X990600Y671310D02*
Y733310D01*
X942340Y671310D02*
X990600D01*
X942340Y733310D02*
X990600D01*
X904300Y535080D02*
Y550080D01*
X851300Y531580D02*
X901300D01*
X851300Y494580D02*
Y531580D01*
Y494580D02*
X901300D01*
Y531580D01*
X828710Y494580D02*
Y531580D01*
X778710Y494580D02*
X828710D01*
X778710D02*
Y531580D01*
X828710D01*
X831710Y535080D02*
Y550080D01*
D12*
X1146022Y519081D02*
G03*
X1146022Y519081I-1500J0D01*
G01*
X1271270Y850900D02*
G03*
X1268270Y853900I-3000J0D01*
G01*
X1271270Y850900D02*
G03*
X1274270Y847900I3000J0D01*
G01*
D02*
G03*
X1277270Y850900I0J3000D01*
G01*
X1268270Y853900D02*
G03*
X1265270Y850900I0J-3000D01*
G01*
X1189180Y847900D02*
G03*
X1192180Y850900I0J3000D01*
G01*
X1186180D02*
G03*
X1189180Y847900I3000J0D01*
G01*
X1186180Y850900D02*
G03*
X1183180Y853900I-3000J0D01*
G01*
X1183180D02*
G03*
X1180180Y850900I0J-3000D01*
G01*
X1186180D02*
Y850900D01*
X1268270Y853900D02*
X1268270D01*
D13*
X1040130Y698500D02*
G03*
X1040130Y698500I-1270J0D01*
G01*
X1016635Y701040D02*
Y711383D01*
X1033145Y714217D02*
Y720883D01*
X1016635Y734060D02*
X1033145D01*
X1016635Y723717D02*
Y734060D01*
Y701040D02*
X1033145D01*
X1336040Y403860D02*
X1339002D01*
X1337521D01*
Y412747D01*
X1336040Y411266D01*
X848360D02*
X849841Y412747D01*
X852804D01*
X854285Y411266D01*
Y409785D01*
X852804Y408304D01*
X851322D01*
X852804D01*
X854285Y406822D01*
Y405341D01*
X852804Y403860D01*
X849841D01*
X848360Y405341D01*
X857247D02*
X858728Y403860D01*
X861691D01*
X863172Y405341D01*
Y411266D01*
X861691Y412747D01*
X858728D01*
X857247Y411266D01*
Y409785D01*
X858728Y408304D01*
X863172D01*
D14*
X896276Y599184D02*
G03*
X896276Y600184I0J500D01*
G01*
D02*
G03*
X896276Y599184I0J-500D01*
G01*
D02*
G03*
X896276Y600184I0J500D01*
G01*
X915190Y878880D02*
X918690Y881380D01*
X915190Y878880D02*
Y881380D01*
X918690Y879130D02*
Y881380D01*
Y883630D01*
X915190Y881380D02*
Y883880D01*
X918690Y881380D01*
X1280036Y423961D02*
X1283536Y421461D01*
X1280036D02*
Y423961D01*
X1283536Y421461D02*
Y423712D01*
Y419212D02*
Y421461D01*
X1280036Y418961D02*
Y421461D01*
Y418961D02*
X1283536Y421461D01*
X778976Y640184D02*
X913576D01*
Y770184D01*
X778976D02*
X913576D01*
X778976Y640184D02*
Y770184D01*
D15*
X1200404Y560578D02*
X1204976D01*
X1199896Y561086D02*
X1204468D01*
X1199388Y561594D02*
X1203960D01*
X1198880Y562102D02*
X1203452D01*
X1198372Y562610D02*
X1202944D01*
X1197864Y563118D02*
X1202436D01*
X1197356Y563626D02*
X1201928D01*
X1196848Y564134D02*
X1201420D01*
X1196848Y564642D02*
X1200912D01*
X1196848Y565150D02*
X1200404D01*
X1196848Y565658D02*
X1199896D01*
X1197356Y566166D02*
X1199388D01*
X1200912Y569722D02*
X1204976D01*
X1200404Y570230D02*
X1204976D01*
X1200404Y570738D02*
X1204468D01*
X1199896Y571246D02*
X1203960D01*
X1199388Y571754D02*
X1203452D01*
X1198880Y572262D02*
X1202944D01*
X1198372Y572770D02*
X1202436D01*
X1197864Y573278D02*
X1202436D01*
X1197864Y573786D02*
X1201928D01*
X1197356Y574294D02*
X1201420D01*
X1196848Y574802D02*
X1200912D01*
X1196340Y575310D02*
X1200404D01*
X1195832Y575818D02*
X1199896D01*
X1195324Y576326D02*
X1199896D01*
X1195324Y576834D02*
X1199388D01*
X1194816Y577342D02*
X1198880D01*
X1194308Y577850D02*
X1198372D01*
X1193800Y578358D02*
X1197864D01*
X1193292Y578866D02*
X1197356D01*
X1192784Y579374D02*
X1197356D01*
X1192276Y579882D02*
X1196848D01*
X1192276Y580390D02*
X1196340D01*
X1191768Y580898D02*
X1195832D01*
X1191260Y581406D02*
X1195324D01*
X1190752Y581914D02*
X1194816D01*
X1190244Y582422D02*
X1194816D01*
X1201420Y582930D02*
X1204976D01*
X1189736D02*
X1194308D01*
X1200912Y583438D02*
X1204468D01*
X1189736D02*
X1193800D01*
X1200912Y583946D02*
X1204468D01*
X1189228D02*
X1193292D01*
X1200404Y584454D02*
X1203960D01*
X1189228D02*
X1192784D01*
X1200404Y584962D02*
X1203960D01*
X1189228D02*
X1192276D01*
X1199896Y585470D02*
X1203452D01*
X1189228D02*
X1191768D01*
X1199896Y585978D02*
X1203452D01*
X1189736D02*
X1191768D01*
X1199896Y586486D02*
X1202944D01*
X1199896Y586994D02*
X1203452D01*
X1199896Y587502D02*
X1203452D01*
X1200404Y588010D02*
X1203960D01*
X1200404Y588518D02*
X1204468D01*
X1200912Y589026D02*
X1204468D01*
X1201420Y590042D02*
X1204976D01*
X1211580Y549402D02*
X1214120D01*
X1211072Y549910D02*
X1214628D01*
X1210564Y550418D02*
X1215136D01*
X1210056Y550926D02*
X1215644D01*
X1209548Y551434D02*
X1216152D01*
X1209040Y551942D02*
X1216660D01*
X1208532Y552450D02*
X1217168D01*
X1213104Y552958D02*
X1217676D01*
X1208024D02*
X1212596D01*
X1213612Y553466D02*
X1218184D01*
X1207516D02*
X1212088D01*
X1214120Y553974D02*
X1218692D01*
X1207008D02*
X1211580D01*
X1214628Y554482D02*
X1219200D01*
X1206500D02*
X1211072D01*
X1215136Y554990D02*
X1219708D01*
X1205992D02*
X1210564D01*
X1215644Y555498D02*
X1220216D01*
X1216152Y556006D02*
X1220724D01*
X1216660Y556514D02*
X1221232D01*
X1217168Y557022D02*
X1221740D01*
X1211580D02*
X1214120D01*
X1217676Y557530D02*
X1222248D01*
X1211072D02*
X1214120D01*
X1218184Y558038D02*
X1222756D01*
X1211072D02*
X1214628D01*
X1218692Y558546D02*
X1223264D01*
X1210564D02*
X1215136D01*
X1219200Y559054D02*
X1223772D01*
X1210056D02*
X1215644D01*
X1219708Y559562D02*
X1224280D01*
X1209548D02*
X1216152D01*
X1220216Y560070D02*
X1224788D01*
X1209040D02*
X1216660D01*
X1220724Y560578D02*
X1225296D01*
X1208532D02*
X1217168D01*
X1213104Y561086D02*
X1217168D01*
X1208532D02*
X1212596D01*
X1213612Y561594D02*
X1217676D01*
X1208024D02*
X1212088D01*
X1214120Y562102D02*
X1218184D01*
X1207516D02*
X1211580D01*
X1214628Y562610D02*
X1218692D01*
X1207008D02*
X1211072D01*
X1215136Y563118D02*
X1219200D01*
X1206500D02*
X1210564D01*
X1215136Y563626D02*
X1219708D01*
X1205992D02*
X1210564D01*
X1215644Y564134D02*
X1219708D01*
X1212088D02*
X1213612D01*
X1216152Y564642D02*
X1220216D01*
X1211580D02*
X1214120D01*
X1216660Y565150D02*
X1220724D01*
X1211072D02*
X1214628D01*
X1217168Y565658D02*
X1221232D01*
X1211072D02*
X1214628D01*
X1217676Y566166D02*
X1221740D01*
X1210564D02*
X1215136D01*
X1217676Y566674D02*
X1222248D01*
X1210564D02*
X1215136D01*
X1218184Y567182D02*
X1222248D01*
X1210056D02*
X1215644D01*
X1218692Y567690D02*
X1222756D01*
X1210056D02*
X1215644D01*
X1219200Y568198D02*
X1223264D01*
X1209548D02*
X1216152D01*
X1219708Y568706D02*
X1223772D01*
X1209040D02*
X1216152D01*
X1220216Y569722D02*
X1224788D01*
X1213104D02*
X1217168D01*
X1208532D02*
X1212596D01*
X1220724Y570230D02*
X1224788D01*
X1213612D02*
X1217168D01*
X1208532D02*
X1212088D01*
X1221232Y570738D02*
X1225296D01*
X1214120D02*
X1217676D01*
X1208024D02*
X1211580D01*
X1214120Y571246D02*
X1217676D01*
X1208024D02*
X1211580D01*
X1214628Y571754D02*
X1218184D01*
X1207516D02*
X1211072D01*
X1214628Y572262D02*
X1218184D01*
X1207516D02*
X1211072D01*
X1215136Y572770D02*
X1218692D01*
X1207008D02*
X1210564D01*
X1215136Y573278D02*
X1218692D01*
X1206500D02*
X1210564D01*
X1215644Y573786D02*
X1219200D01*
X1206500D02*
X1210056D01*
X1215644Y574294D02*
X1219708D01*
X1205992D02*
X1209548D01*
X1216152Y574802D02*
X1219708D01*
X1205992D02*
X1209548D01*
X1216660Y575310D02*
X1220216D01*
X1216660Y575818D02*
X1220216D01*
X1217168Y576326D02*
X1220724D01*
X1217168Y576834D02*
X1220724D01*
X1217676Y577342D02*
X1221232D01*
X1217676Y577850D02*
X1221232D01*
X1218184Y578358D02*
X1221740D01*
X1218184Y578866D02*
X1222248D01*
X1218692Y579374D02*
X1222248D01*
X1219200Y579882D02*
X1222756D01*
X1219200Y580390D02*
X1222756D01*
X1219708Y580898D02*
X1223264D01*
X1219708Y581406D02*
X1223264D01*
X1220216Y581914D02*
X1223772D01*
X1220216Y582422D02*
X1223772D01*
X1220724Y582930D02*
X1224280D01*
X1220724Y583438D02*
X1224788D01*
X1221232Y583946D02*
X1224788D01*
X1221740Y584454D02*
X1225296D01*
X1221740Y584962D02*
X1225296D01*
X1221740Y588010D02*
X1225296D01*
X1221232Y588518D02*
X1224788D01*
X1221232Y589026D02*
X1224788D01*
X1220724Y590042D02*
X1224280D01*
X1220216Y590550D02*
X1223772D01*
X1220216Y591058D02*
X1223772D01*
X1219708Y591566D02*
X1223264D01*
X1211072D02*
X1214628D01*
X1219708Y592074D02*
X1223264D01*
X1211072D02*
X1214628D01*
X1219200Y592582D02*
X1222756D01*
X1211072D02*
X1214628D01*
X1218692Y593090D02*
X1222756D01*
X1211072D02*
X1214628D01*
X1218692Y593598D02*
X1222248D01*
X1211072D02*
X1214628D01*
X1218184Y594106D02*
X1222248D01*
X1211580D02*
X1214120D01*
X1218184Y594614D02*
X1221740D01*
X1217676Y595122D02*
X1221232D01*
X1217676Y595630D02*
X1221232D01*
X1217168Y596138D02*
X1220724D01*
X1217168Y596646D02*
X1220724D01*
X1216660Y597154D02*
X1220216D01*
X1216660Y597662D02*
X1220216D01*
X1216152Y598170D02*
X1219708D01*
X1205992D02*
X1209548D01*
X1216152Y598678D02*
X1219708D01*
X1205992D02*
X1209548D01*
X1215644Y599186D02*
X1219200D01*
X1206500D02*
X1210056D01*
X1215136Y599694D02*
X1219200D01*
X1206500D02*
X1210056D01*
X1215136Y600202D02*
X1218692D01*
X1207008D02*
X1210564D01*
X1214628Y600710D02*
X1218692D01*
X1207008D02*
X1210564D01*
X1214628Y601218D02*
X1218184D01*
X1207516D02*
X1211072D01*
X1214120Y601726D02*
X1217676D01*
X1207516D02*
X1211580D01*
X1214120Y602234D02*
X1217676D01*
X1208024D02*
X1211580D01*
X1213612Y602742D02*
X1217168D01*
X1208532D02*
X1212088D01*
X1213612Y603250D02*
X1217168D01*
X1208532D02*
X1212088D01*
X1213104Y603758D02*
X1216660D01*
X1209040D02*
X1212596D01*
X1213104Y604266D02*
X1216660D01*
X1209040D02*
X1212596D01*
X1209548Y604774D02*
X1216152D01*
X1209548Y605282D02*
X1216152D01*
X1210056Y605790D02*
X1215644D01*
X1210056Y606298D02*
X1215644D01*
X1210564Y606806D02*
X1215136D01*
X1210564Y607314D02*
X1215136D01*
X1211072Y607822D02*
X1214628D01*
X1211072Y608330D02*
X1214120D01*
X1211580Y608838D02*
X1214120D01*
X1226312Y566166D02*
X1228344D01*
X1226312Y576834D02*
X1230376D01*
X1226820Y577342D02*
X1230884D01*
X1227328Y577850D02*
X1231392D01*
X1227836Y578358D02*
X1231900D01*
X1228344Y578866D02*
X1232408D01*
X1228344Y579374D02*
X1232916D01*
X1228852Y579882D02*
X1232916D01*
X1229360Y580390D02*
X1233424D01*
X1229868Y580898D02*
X1233932D01*
X1230376Y581406D02*
X1234440D01*
X1230884Y581914D02*
X1234948D01*
X1230884Y582422D02*
X1235456D01*
X1231392Y582930D02*
X1235456D01*
X1231900Y583438D02*
X1235964D01*
X1232408Y583946D02*
X1236472D01*
X1232916Y584454D02*
X1236472D01*
X1233424Y584962D02*
X1236472D01*
X1233424Y585470D02*
X1236472D01*
X1233932Y585978D02*
X1235964D01*
X1201420Y589534D02*
X1204976D01*
X1220216Y569214D02*
X1224280D01*
X1213104D02*
X1216660D01*
X1209040D02*
X1212596D01*
X1220724Y589534D02*
X1224280D01*
X1205484Y555498D02*
X1210056D01*
X1204976Y556006D02*
X1209548D01*
X1204468Y556514D02*
X1209040D01*
X1203960Y557022D02*
X1208532D01*
X1203452Y557530D02*
X1208024D01*
X1202944Y558038D02*
X1207516D01*
X1202436Y558546D02*
X1207008D01*
X1201928Y559054D02*
X1206500D01*
X1201420Y559562D02*
X1205992D01*
X1200912Y560070D02*
X1205484D01*
X1221232Y561086D02*
X1225804D01*
X1221740Y561594D02*
X1226312D01*
X1222248Y562102D02*
X1226820D01*
X1222756Y562610D02*
X1227328D01*
X1223264Y563118D02*
X1227836D01*
X1223772Y563626D02*
X1228344D01*
X1224280Y564134D02*
X1228852D01*
X1205484D02*
X1210056D01*
X1224788Y564642D02*
X1228852D01*
X1205484D02*
X1209548D01*
X1225296Y565150D02*
X1228852D01*
X1204976D02*
X1209040D01*
X1225804Y565658D02*
X1228852D01*
X1204468D02*
X1208532D01*
X1203960Y566166D02*
X1208024D01*
X1203452Y566674D02*
X1208024D01*
X1202944Y567182D02*
X1207516D01*
X1202944Y567690D02*
X1207008D01*
X1202436Y568198D02*
X1206500D01*
X1201928Y568706D02*
X1205992D01*
X1221740Y571246D02*
X1225804D01*
X1222248Y571754D02*
X1226312D01*
X1222756Y572262D02*
X1226820D01*
X1222756Y572770D02*
X1227328D01*
X1223264Y573278D02*
X1227328D01*
X1223772Y573786D02*
X1227836D01*
X1224280Y574294D02*
X1228344D01*
X1224788Y574802D02*
X1228852D01*
X1225296Y575310D02*
X1229360D01*
X1205484D02*
X1209040D01*
X1225296Y575818D02*
X1229868D01*
X1205484D02*
X1209040D01*
X1225804Y576326D02*
X1230376D01*
X1204976D02*
X1208532D01*
X1204976Y576834D02*
X1208532D01*
X1204468Y577342D02*
X1208024D01*
X1203960Y577850D02*
X1208024D01*
X1203960Y578358D02*
X1207516D01*
X1203452Y578866D02*
X1207008D01*
X1203452Y579374D02*
X1207008D01*
X1202944Y579882D02*
X1206500D01*
X1202944Y580390D02*
X1206500D01*
X1202436Y580898D02*
X1205992D01*
X1202436Y581406D02*
X1205992D01*
X1201928Y581914D02*
X1205484D01*
X1201420Y582422D02*
X1205484D01*
X1222248Y585470D02*
X1225804D01*
X1222248Y585978D02*
X1225804D01*
X1222248Y586486D02*
X1225804D01*
X1222248Y586994D02*
X1225804D01*
X1221740Y587502D02*
X1225804D01*
X1201928Y590550D02*
X1205484D01*
X1201928Y591058D02*
X1205484D01*
X1202436Y591566D02*
X1205992D01*
X1202436Y592074D02*
X1205992D01*
X1202944Y592582D02*
X1206500D01*
X1202944Y593090D02*
X1206500D01*
X1203452Y593598D02*
X1207008D01*
X1203452Y594106D02*
X1207008D01*
X1203960Y594614D02*
X1207516D01*
X1203960Y595122D02*
X1208024D01*
X1204468Y595630D02*
X1208024D01*
X1204976Y596138D02*
X1208532D01*
X1204976Y596646D02*
X1208532D01*
X1205484Y597154D02*
X1209040D01*
X1205484Y597662D02*
X1209040D01*
X1201420Y569214D02*
X1205484D01*
D16*
X908352Y585092D02*
X910272D01*
X908352Y559692D02*
Y585092D01*
Y559692D02*
X910272D01*
X920432D02*
X922352D01*
Y585092D01*
X920432D02*
X922352D01*
X908352Y572392D02*
X922352D01*
X1191823Y683464D02*
Y697464D01*
X1179122Y695544D02*
Y697464D01*
X1204522D01*
Y695544D02*
Y697464D01*
Y683464D02*
Y685384D01*
X1179122Y683464D02*
X1204522D01*
X1179122D02*
Y685384D01*
X1275465Y683880D02*
Y697880D01*
X1262765Y695960D02*
Y697880D01*
X1288165D01*
Y695960D02*
Y697880D01*
Y683880D02*
Y685800D01*
X1262765Y683880D02*
X1288165D01*
X1262765D02*
Y685800D01*
X1244422Y683880D02*
Y697880D01*
X1230422Y694880D02*
Y697880D01*
X1258422D01*
Y694880D02*
Y697880D01*
Y683880D02*
Y686880D01*
X1230422Y683880D02*
X1258422D01*
X1230422D02*
Y686880D01*
X1160780Y683880D02*
Y697880D01*
X1146780Y694880D02*
Y697880D01*
X1174780D01*
Y694880D02*
Y697880D01*
Y683880D02*
Y686880D01*
X1146780Y683880D02*
X1174780D01*
X1146780D02*
Y686880D01*
X1288165Y718588D02*
Y720508D01*
X1262765D02*
X1288165D01*
X1262765Y718588D02*
Y720508D01*
Y706508D02*
Y708428D01*
Y706508D02*
X1288165D01*
Y708428D01*
X1275465Y706508D02*
Y720508D01*
X1274672Y756765D02*
X1288672D01*
X1274672Y742765D02*
X1277672D01*
X1274672D02*
Y770765D01*
X1277672D01*
X1285672D02*
X1288672D01*
Y742765D02*
Y770765D01*
X1285672Y742765D02*
X1288672D01*
X1304862Y744065D02*
X1306782D01*
Y769465D01*
X1304862D02*
X1306782D01*
X1292782D02*
X1294702D01*
X1292782Y744065D02*
Y769465D01*
Y744065D02*
X1294702D01*
X1292782Y756765D02*
X1306782D01*
X1264390Y842226D02*
X1266310D01*
X1264390Y816826D02*
Y842226D01*
Y816826D02*
X1266310D01*
X1276470D02*
X1278390D01*
Y842226D01*
X1276470D02*
X1278390D01*
X1264390Y829526D02*
X1278390D01*
X1258428Y816826D02*
X1260348D01*
Y842226D01*
X1258428D02*
X1260348D01*
X1246347D02*
X1248268D01*
X1246347Y816826D02*
Y842226D01*
Y816826D02*
X1248268D01*
X1246347Y829526D02*
X1260348D01*
X1215598Y830146D02*
Y832066D01*
Y830146D02*
X1240997D01*
Y832066D01*
Y842226D02*
Y844146D01*
X1215598D02*
X1240997D01*
X1215598Y842226D02*
Y844146D01*
X1228298Y830146D02*
Y844146D01*
X1274672Y788808D02*
X1288672D01*
X1285672Y802808D02*
X1288672D01*
Y774808D02*
Y802808D01*
X1285672Y774808D02*
X1288672D01*
X1274672D02*
X1277672D01*
X1274672D02*
Y802808D01*
X1277672D01*
X1282436Y829526D02*
X1296436D01*
X1282436Y815526D02*
X1285436D01*
X1282436D02*
Y843526D01*
X1285436D01*
X1293436D02*
X1296436D01*
Y815526D02*
Y843526D01*
X1293436Y815526D02*
X1296436D01*
X1292945Y801508D02*
X1294865D01*
X1292945Y776108D02*
Y801508D01*
Y776108D02*
X1294865D01*
X1305025D02*
X1306945D01*
Y801508D01*
X1305025D02*
X1306945D01*
X1292945Y788808D02*
X1306945D01*
X1256862Y622670D02*
X1258783D01*
Y648070D01*
X1256862D02*
X1258783D01*
X1244782D02*
X1246702D01*
X1244782Y622670D02*
Y648070D01*
Y622670D02*
X1246702D01*
X1244782Y635370D02*
X1258783D01*
X1237740Y671361D02*
Y674361D01*
X1209740D02*
X1237740D01*
X1209740Y671361D02*
Y674361D01*
Y660361D02*
Y663361D01*
Y660361D02*
X1237740D01*
Y663361D01*
X1223740Y660361D02*
Y674361D01*
X1207041Y759589D02*
X1221041D01*
X1207041Y746889D02*
X1208961D01*
X1207041D02*
Y772289D01*
X1208961D01*
X1219121D02*
X1221041D01*
Y746889D02*
Y772289D01*
X1219121Y746889D02*
X1221041D01*
X1202815Y736079D02*
Y737999D01*
X1177415D02*
X1202815D01*
X1177415Y736079D02*
Y737999D01*
Y723999D02*
Y725919D01*
Y723999D02*
X1202815D01*
Y725919D01*
X1190115Y723999D02*
Y737999D01*
X1207157Y736373D02*
X1210157D01*
X1207157Y708373D02*
Y736373D01*
Y708373D02*
X1210157D01*
X1218157D02*
X1221157D01*
Y736373D01*
X1218157D02*
X1221157D01*
X1207157Y722373D02*
X1221157D01*
X1199549Y745589D02*
X1202549D01*
Y773589D01*
X1199549D02*
X1202549D01*
X1188549D02*
X1191549D01*
X1188549Y745589D02*
Y773589D01*
Y745589D02*
X1191549D01*
X1188549Y759589D02*
X1202549D01*
X1069485Y722243D02*
X1072485D01*
Y750243D01*
X1069485D02*
X1072485D01*
X1058485D02*
X1061485D01*
X1058485Y722243D02*
Y750243D01*
Y722243D02*
X1061485D01*
X1058485Y736243D02*
X1072485D01*
X1208835Y817696D02*
X1210755D01*
Y843096D01*
X1208835D02*
X1210755D01*
X1196755D02*
X1198675D01*
X1196755Y817696D02*
Y843096D01*
Y817696D02*
X1198675D01*
X1196755Y830396D02*
X1210755D01*
X1178712Y843096D02*
X1180632D01*
X1178712Y817696D02*
Y843096D01*
Y817696D02*
X1180632D01*
X1190792D02*
X1192712D01*
Y843096D01*
X1190792D02*
X1192712D01*
X1178712Y830396D02*
X1192712D01*
X1188549Y790632D02*
X1202549D01*
X1200629Y803332D02*
X1202549D01*
Y777932D02*
Y803332D01*
X1200629Y777932D02*
X1202549D01*
X1188549D02*
X1190469D01*
X1188549D02*
Y803332D01*
X1190469D01*
X1206591Y790632D02*
X1220591D01*
X1217591Y804632D02*
X1220591D01*
Y776632D02*
Y804632D01*
X1217591Y776632D02*
X1220591D01*
X1206591D02*
X1209591D01*
X1206591D02*
Y804632D01*
X1209591D01*
X1202815Y718037D02*
Y719957D01*
X1177415D02*
X1202815D01*
X1177415Y718037D02*
Y719957D01*
Y705957D02*
Y707877D01*
Y705957D02*
X1202815D01*
Y707877D01*
X1190115Y705957D02*
Y719957D01*
X1151756Y743915D02*
Y746915D01*
Y743915D02*
X1179756D01*
Y746915D01*
Y754915D02*
Y757915D01*
X1151756D02*
X1179756D01*
X1151756Y754915D02*
Y757915D01*
X1165756Y743915D02*
Y757915D01*
X1288165Y736803D02*
Y738723D01*
X1262765D02*
X1288165D01*
X1262765Y736803D02*
Y738723D01*
Y724723D02*
Y726643D01*
Y724723D02*
X1288165D01*
Y726643D01*
X1275465Y724723D02*
Y738723D01*
X1292782Y722924D02*
X1306782D01*
X1303782Y736924D02*
X1306782D01*
Y708924D02*
Y736924D01*
X1303782Y708924D02*
X1306782D01*
X1292782D02*
X1295782D01*
X1292782D02*
Y736924D01*
X1295782D01*
X1249922Y743915D02*
Y757915D01*
X1235922Y754915D02*
Y757915D01*
X1263922D01*
Y754915D02*
Y757915D01*
Y743915D02*
Y746915D01*
X1235922Y743915D02*
X1263922D01*
X1235922D02*
Y746915D01*
X1171670Y816396D02*
X1174670D01*
Y844396D01*
X1171670D02*
X1174670D01*
X1160670D02*
X1163670D01*
X1160670Y816396D02*
Y844396D01*
Y816396D02*
X1163670D01*
X1160670Y830396D02*
X1174670D01*
X1078999Y735954D02*
X1092999D01*
X1078999Y723254D02*
X1080919D01*
X1078999D02*
Y748654D01*
X1080919D01*
X1091079D02*
X1092999D01*
Y723254D02*
Y748654D01*
X1091079Y723254D02*
X1092999D01*
X1314069Y473046D02*
Y487047D01*
X1300069Y484047D02*
Y487047D01*
X1328069D01*
Y484047D02*
Y487047D01*
Y473046D02*
Y476046D01*
X1300069Y473046D02*
X1328069D01*
X1300069D02*
Y476046D01*
X1267204Y529234D02*
X1269124D01*
X1267204Y503834D02*
Y529234D01*
Y503834D02*
X1269124D01*
X1279284D02*
X1281204D01*
Y529234D01*
X1279284D02*
X1281204D01*
X1267204Y516534D02*
X1281204D01*
X1356994Y738705D02*
Y741705D01*
Y738705D02*
X1384993D01*
Y741705D01*
Y749705D02*
Y752705D01*
X1356994D02*
X1384993D01*
X1356994Y749705D02*
Y752705D01*
X1370993Y738705D02*
Y752705D01*
X1341371Y450170D02*
X1355372D01*
X1341371Y437470D02*
X1343291D01*
X1341371D02*
Y462870D01*
X1343291D01*
X1353452D02*
X1355372D01*
Y437470D02*
Y462870D01*
X1353452Y437470D02*
X1355372D01*
X1125421Y454396D02*
Y457396D01*
Y454396D02*
X1153421D01*
Y457396D01*
Y465396D02*
Y468396D01*
X1125421D02*
X1153421D01*
X1125421Y465396D02*
Y468396D01*
X1139421Y454396D02*
Y468396D01*
X1093379Y472438D02*
Y475438D01*
Y472438D02*
X1121379D01*
Y475438D01*
Y483438D02*
Y486438D01*
X1093379D02*
X1121379D01*
X1093379Y483438D02*
Y486438D01*
X1107379Y472438D02*
Y486438D01*
X1267043Y499191D02*
X1268963D01*
X1267043Y473791D02*
Y499191D01*
Y473791D02*
X1268963D01*
X1279123D02*
X1281043D01*
Y499191D01*
X1279123D02*
X1281043D01*
X1267043Y486491D02*
X1281043D01*
X1249161Y529234D02*
X1251081D01*
X1249161Y503834D02*
Y529234D01*
Y503834D02*
X1251081D01*
X1261241D02*
X1263161D01*
Y529234D01*
X1261241D02*
X1263161D01*
X1249161Y516534D02*
X1263161D01*
X1249001Y486281D02*
X1263001D01*
X1261081Y498981D02*
X1263001D01*
Y473581D02*
Y498981D01*
X1261081Y473581D02*
X1263001D01*
X1249001D02*
X1250921D01*
X1249001D02*
Y498981D01*
X1250921D01*
X1230578Y486491D02*
X1244578D01*
X1242658Y499191D02*
X1244578D01*
Y473791D02*
Y499191D01*
X1242658Y473791D02*
X1244578D01*
X1230578D02*
X1232498D01*
X1230578D02*
Y499191D01*
X1232498D01*
X1230578Y529234D02*
X1232498D01*
X1230578Y503834D02*
Y529234D01*
Y503834D02*
X1232498D01*
X1242658D02*
X1244578D01*
Y529234D01*
X1242658D02*
X1244578D01*
X1230578Y516534D02*
X1244578D01*
X1114505Y627072D02*
X1128505D01*
X1114505Y614372D02*
X1116425D01*
X1114505D02*
Y639772D01*
X1116425D01*
X1126585D02*
X1128505D01*
Y614372D02*
Y639772D01*
X1126585Y614372D02*
X1128505D01*
X1079067Y716130D02*
X1080987D01*
X1079067Y690730D02*
Y716130D01*
Y690730D02*
X1080987D01*
X1091147D02*
X1093067D01*
Y716130D01*
X1091147D02*
X1093067D01*
X1079067Y703430D02*
X1093067D01*
X1139522Y514081D02*
Y552081D01*
X1189522D01*
Y514081D02*
Y552081D01*
X1139522Y514081D02*
X1189522D01*
X1104930Y581850D02*
Y584850D01*
X1076930D02*
X1104930D01*
X1076930Y581850D02*
Y584850D01*
Y570850D02*
Y573850D01*
Y570850D02*
X1104930D01*
Y573850D01*
X1090930Y570850D02*
Y584850D01*
X1058485Y703430D02*
X1072485D01*
X1070565Y716130D02*
X1072485D01*
Y690730D02*
Y716130D01*
X1070565Y690730D02*
X1072485D01*
X1058485D02*
X1060405D01*
X1058485D02*
Y716130D01*
X1060405D01*
X1185464Y465396D02*
Y468396D01*
X1157464D02*
X1185464D01*
X1157464Y465396D02*
Y468396D01*
Y454396D02*
Y457396D01*
Y454396D02*
X1185464D01*
Y457396D01*
X1171464Y454396D02*
Y468396D01*
X1107379Y454396D02*
Y468396D01*
X1093379Y465396D02*
Y468396D01*
X1121379D01*
Y465396D02*
Y468396D01*
Y454396D02*
Y457396D01*
X1093379Y454396D02*
X1121379D01*
X1093379D02*
Y457396D01*
X1171464Y472438D02*
Y486438D01*
X1185464Y472438D02*
Y475438D01*
X1157464Y472438D02*
X1185464D01*
X1157464D02*
Y475438D01*
Y483438D02*
Y486438D01*
X1185464D01*
Y483438D02*
Y486438D01*
X969010Y509990D02*
Y511910D01*
X943610D02*
X969010D01*
X943610Y509990D02*
Y511910D01*
Y497910D02*
Y499830D01*
Y497910D02*
X969010D01*
Y499830D01*
X956310Y497910D02*
Y511910D01*
X1184055Y433253D02*
X1198055D01*
X1184055Y420553D02*
X1185975D01*
X1184055D02*
Y445953D01*
X1185975D01*
X1196135D02*
X1198055D01*
Y420553D02*
Y445953D01*
X1196135Y420553D02*
X1198055D01*
X1019160Y519949D02*
X1021080D01*
X1019160Y494549D02*
Y519949D01*
Y494549D02*
X1021080D01*
X1031240D02*
X1033160D01*
Y519949D01*
X1031240D02*
X1033160D01*
X1019160Y507249D02*
X1033160D01*
X1125421Y472438D02*
Y475438D01*
Y472438D02*
X1153421D01*
Y475438D01*
Y483438D02*
Y486438D01*
X1125421D02*
X1153421D01*
X1125421Y483438D02*
Y486438D01*
X1139421Y472438D02*
Y486438D01*
X1232220Y420553D02*
X1234140D01*
Y445953D01*
X1232220D02*
X1234140D01*
X1220140D02*
X1222060D01*
X1220140Y420553D02*
Y445953D01*
Y420553D02*
X1222060D01*
X1220140Y433253D02*
X1234140D01*
X1214178Y420553D02*
X1216098D01*
Y445953D01*
X1214178D02*
X1216098D01*
X1202098D02*
X1204018D01*
X1202098Y420553D02*
Y445953D01*
Y420553D02*
X1204018D01*
X1202098Y433253D02*
X1216098D01*
X1274786Y462718D02*
X1276706D01*
X1274786Y437318D02*
Y462718D01*
Y437318D02*
X1276706D01*
X1286866D02*
X1288786D01*
Y462718D01*
X1286866D02*
X1288786D01*
X1274786Y450018D02*
X1288786D01*
X1326769Y426541D02*
Y428461D01*
X1301369D02*
X1326769D01*
X1301369Y426541D02*
Y428461D01*
Y414462D02*
Y416381D01*
Y414462D02*
X1326769D01*
Y416381D01*
X1314069Y414462D02*
Y428461D01*
X1280868Y635057D02*
X1294868D01*
X1280868Y622357D02*
X1282788D01*
X1280868D02*
Y647757D01*
X1282788D01*
X1292948D02*
X1294868D01*
Y622357D02*
Y647757D01*
X1292948Y622357D02*
X1294868D01*
X1273825Y621057D02*
X1276825D01*
Y649057D01*
X1273825D02*
X1276825D01*
X1262825D02*
X1265825D01*
X1262825Y621057D02*
Y649057D01*
Y621057D02*
X1265825D01*
X1262825Y635057D02*
X1276825D01*
X916940Y884880D02*
Y888380D01*
Y874380D02*
Y877880D01*
X901700Y874380D02*
Y876300D01*
Y874380D02*
X931940D01*
X930910D02*
Y878840D01*
Y883920D02*
Y888380D01*
X901700D02*
X931940D01*
X901700Y886460D02*
Y888380D01*
X930910Y874380D02*
X932180D01*
Y878840D01*
X930910D02*
X932180D01*
X930910Y888380D02*
X932180D01*
Y883920D02*
Y888380D01*
X930910Y883920D02*
X932180D01*
X943610Y477327D02*
Y479248D01*
Y477327D02*
X969010D01*
Y479248D01*
Y489408D02*
Y491328D01*
X943610D02*
X969010D01*
X943610Y489408D02*
Y491328D01*
X956310Y477327D02*
Y491328D01*
X1281786Y414462D02*
Y417962D01*
X1295756Y424002D02*
X1297026D01*
Y428461D01*
X1295756D02*
X1297026D01*
X1295756Y418922D02*
X1297026D01*
Y414462D02*
Y418922D01*
X1295756Y414462D02*
X1297026D01*
X1281786Y424962D02*
Y428461D01*
X1266546Y426541D02*
Y428461D01*
X1296786D01*
X1295756Y424002D02*
Y428461D01*
Y414462D02*
Y418922D01*
X1266546Y414462D02*
X1295786D01*
X1266546D02*
Y416381D01*
X952077Y419740D02*
Y433740D01*
X939378Y431820D02*
Y433740D01*
X964778D01*
Y431820D02*
Y433740D01*
Y419740D02*
Y421660D01*
X939378Y419740D02*
X964778D01*
X939378D02*
Y421660D01*
X1001781Y430563D02*
Y433563D01*
X973781D02*
X1001781D01*
X973781Y430563D02*
Y433563D01*
Y419563D02*
Y422563D01*
Y419563D02*
X1001781D01*
Y422563D01*
X987781Y419563D02*
Y433563D01*
X831710Y552830D02*
X834210D01*
Y600330D01*
X831710D02*
X834210D01*
X811710D02*
X814210D01*
X811710Y552830D02*
Y600330D01*
Y552830D02*
X814210D01*
X811710Y576580D02*
X834210D01*
X875210D02*
X897710D01*
X875210Y552830D02*
X877710D01*
X875210D02*
Y600330D01*
X877710D01*
X895210D02*
X897710D01*
Y552830D02*
Y600330D01*
X895210Y552830D02*
X897710D01*
X1034467Y440167D02*
X1036967D01*
Y487667D01*
X1034467D02*
X1036967D01*
X1014467D02*
X1016967D01*
X1014467Y440167D02*
Y487667D01*
Y440167D02*
X1016967D01*
X1014467Y463917D02*
X1036967D01*
X1005385Y440167D02*
X1007885D01*
Y487667D01*
X1005385D02*
X1007885D01*
X985385D02*
X987885D01*
X985385Y440167D02*
Y487667D01*
Y440167D02*
X987885D01*
X985385Y463917D02*
X1007885D01*
X962148Y885900D02*
Y887820D01*
X936748D02*
X962148D01*
X936748Y885900D02*
Y887820D01*
Y873820D02*
Y875740D01*
Y873820D02*
X962148D01*
Y875740D01*
X949448Y873820D02*
Y887820D01*
X1250263Y420686D02*
X1252183D01*
Y446086D01*
X1250263D02*
X1252183D01*
X1238183D02*
X1240103D01*
X1238183Y420686D02*
Y446086D01*
Y420686D02*
X1240103D01*
X1238183Y433386D02*
X1252183D01*
X842190Y576580D02*
X864690D01*
X842190Y552830D02*
X844690D01*
X842190D02*
Y600330D01*
X844690D01*
X862190D02*
X864690D01*
Y552830D02*
Y600330D01*
X862190Y552830D02*
X864690D01*
D17*
X1277620Y535940D02*
X1269623D01*
X1272288Y538606D01*
X1269623Y541272D01*
X1277620D01*
X1269623Y543937D02*
X1277620D01*
Y547936D01*
X1276287Y549269D01*
X1270956D01*
X1269623Y547936D01*
Y543937D01*
X1277620Y551935D02*
Y554601D01*
Y553268D01*
X1269623D01*
X1270956Y551935D01*
X1251843Y541272D02*
Y535940D01*
X1255841D01*
Y538606D01*
Y535940D01*
X1259840D01*
Y543937D02*
X1251843D01*
X1254508Y546603D01*
X1251843Y549269D01*
X1259840D01*
X1251843Y551935D02*
Y557266D01*
Y554601D01*
X1259840D01*
X1242060Y535940D02*
X1234063D01*
X1236728Y538606D01*
X1234063Y541272D01*
X1242060D01*
X1234063Y543937D02*
X1242060D01*
Y547936D01*
X1240727Y549269D01*
X1235396D01*
X1234063Y547936D01*
Y543937D01*
X1235396Y551935D02*
X1234063Y553268D01*
Y555934D01*
X1235396Y557266D01*
X1240727D01*
X1242060Y555934D01*
Y553268D01*
X1240727Y551935D01*
X1235396D01*
X1337310Y599817D02*
X1342642D01*
X1339976D01*
Y591820D01*
X1345307Y599817D02*
X1350639Y591820D01*
Y599817D02*
X1345307Y591820D01*
X1337310Y618490D02*
Y626487D01*
X1341309D01*
X1342642Y625154D01*
Y622489D01*
X1341309Y621156D01*
X1337310D01*
X1339976D02*
X1342642Y618490D01*
X1345307Y626487D02*
X1350639Y618490D01*
Y626487D02*
X1345307Y618490D01*
X1334562Y548555D02*
X1333229Y549888D01*
X1330563D01*
X1329230Y548555D01*
Y543224D01*
X1330563Y541891D01*
X1333229D01*
X1334562Y543224D01*
Y545889D01*
X1331896D01*
X1337228Y541891D02*
Y549888D01*
X1342559Y541891D01*
Y549888D01*
X1345225D02*
Y541891D01*
X1349224D01*
X1350557Y543224D01*
Y548555D01*
X1349224Y549888D01*
X1345225D01*
X1322070Y571689D02*
X1327402D01*
X1324736Y574355D02*
Y569023D01*
X1330067Y574355D02*
X1331400Y575687D01*
X1334066D01*
X1335399Y574355D01*
Y573022D01*
X1334066Y571689D01*
X1332733D01*
X1334066D01*
X1335399Y570356D01*
Y569023D01*
X1334066Y567690D01*
X1331400D01*
X1330067Y569023D01*
X1338065Y573022D02*
X1340731Y567690D01*
X1343396Y573022D01*
X1346062Y574355D02*
X1347395Y575687D01*
X1350061D01*
X1351394Y574355D01*
Y573022D01*
X1350061Y571689D01*
X1348728D01*
X1350061D01*
X1351394Y570356D01*
Y569023D01*
X1350061Y567690D01*
X1347395D01*
X1346062Y569023D01*
X1330960Y695960D02*
Y703957D01*
X1334959D01*
X1336292Y702625D01*
Y699959D01*
X1334959Y698626D01*
X1330960D01*
X1338957Y695960D02*
Y703957D01*
X1342956D01*
X1344289Y702625D01*
Y699959D01*
X1342956Y698626D01*
X1338957D01*
X1352286Y702625D02*
X1350954Y703957D01*
X1348288D01*
X1346955Y702625D01*
Y701292D01*
X1348288Y699959D01*
X1350954D01*
X1352286Y698626D01*
Y697293D01*
X1350954Y695960D01*
X1348288D01*
X1346955Y697293D01*
X1314303Y885190D02*
Y893187D01*
X1318302D01*
X1319634Y891854D01*
Y889189D01*
X1318302Y887856D01*
X1314303D01*
X1316969D02*
X1319634Y885190D01*
X1322300Y893187D02*
X1324966D01*
X1323633D01*
Y885190D01*
X1322300D01*
X1324966D01*
X1334296Y891854D02*
X1332964Y893187D01*
X1330298D01*
X1328965Y891854D01*
Y886523D01*
X1330298Y885190D01*
X1332964D01*
X1334296Y886523D01*
Y889189D01*
X1331631D01*
X1336962Y893187D02*
Y885190D01*
Y889189D01*
X1342294D01*
Y893187D01*
Y885190D01*
X1344960Y893187D02*
X1350291D01*
X1347625D01*
Y885190D01*
X1112520Y894457D02*
Y886460D01*
X1117852D01*
X1125849Y894457D02*
X1120517D01*
Y886460D01*
X1125849D01*
X1120517Y890459D02*
X1123183D01*
X1133846Y894457D02*
X1128515D01*
Y890459D01*
X1131181D01*
X1128515D01*
Y886460D01*
X1136512Y894457D02*
X1141844D01*
X1139178D01*
Y886460D01*
X1242939Y852179D02*
X1248270D01*
X1245605Y854844D02*
Y849513D01*
X1294130Y852170D02*
X1299462D01*
X1156970Y851026D02*
X1162302D01*
X1159636Y853692D02*
Y848360D01*
X1209040Y850900D02*
X1214372D01*
D18*
X920668Y597541D02*
X910672D01*
Y602539D01*
X912338Y604206D01*
X915670D01*
X917336Y602539D01*
Y597541D01*
Y600873D02*
X920668Y604206D01*
Y612536D02*
X910672D01*
X915670Y607538D01*
Y614202D01*
X920668Y622533D02*
X910672D01*
X915670Y617534D01*
Y624199D01*
X1364935Y718902D02*
Y728898D01*
X1369934D01*
X1371600Y727232D01*
Y723900D01*
X1369934Y722234D01*
X1364935D01*
X1374932Y718902D02*
X1378264D01*
X1376598D01*
Y728898D01*
X1374932Y727232D01*
X1233088Y736396D02*
Y733064D01*
Y734730D01*
X1223092D01*
Y736396D01*
Y733064D01*
X1231422Y721401D02*
X1233088Y723067D01*
Y726399D01*
X1231422Y728065D01*
X1224758D01*
X1223092Y726399D01*
Y723067D01*
X1224758Y721401D01*
Y718068D02*
X1223092Y716402D01*
Y713070D01*
X1224758Y711404D01*
X1231422D01*
X1233088Y713070D01*
Y716402D01*
X1231422Y718068D01*
X1229756D01*
X1228090Y716402D01*
Y711404D01*
X1130382Y707594D02*
Y710926D01*
Y709260D01*
X1140378D01*
Y707594D01*
Y710926D01*
X1132048Y722589D02*
X1130382Y720923D01*
Y717591D01*
X1132048Y715925D01*
X1138712D01*
X1140378Y717591D01*
Y720923D01*
X1138712Y722589D01*
X1130382Y732586D02*
X1132048Y729254D01*
X1135380Y725921D01*
X1138712D01*
X1140378Y727588D01*
Y730920D01*
X1138712Y732586D01*
X1137046D01*
X1135380Y730920D01*
Y725921D01*
X1324692Y800729D02*
X1334688D01*
Y795731D01*
X1333022Y794064D01*
X1329690D01*
X1328024Y795731D01*
Y800729D01*
Y797397D02*
X1324692Y794064D01*
X1333022Y790732D02*
X1334688Y789066D01*
Y785734D01*
X1333022Y784068D01*
X1331356D01*
X1329690Y785734D01*
Y787400D01*
Y785734D01*
X1328024Y784068D01*
X1326358D01*
X1324692Y785734D01*
Y789066D01*
X1326358Y790732D01*
X1324692Y774071D02*
Y780735D01*
X1331356Y774071D01*
X1333022D01*
X1334688Y775737D01*
Y779069D01*
X1333022Y780735D01*
X1326322Y765100D02*
X1336319D01*
Y760101D01*
X1334653Y758435D01*
X1331320D01*
X1329654Y760101D01*
Y765100D01*
Y761767D02*
X1326322Y758435D01*
X1334653Y755103D02*
X1336319Y753437D01*
Y750104D01*
X1334653Y748438D01*
X1332987D01*
X1331320Y750104D01*
Y751771D01*
Y750104D01*
X1329654Y748438D01*
X1327988D01*
X1326322Y750104D01*
Y753437D01*
X1327988Y755103D01*
X1326322Y745106D02*
Y741774D01*
Y743440D01*
X1336319D01*
X1334653Y745106D01*
X1214761Y815422D02*
Y825418D01*
X1219759D01*
X1221425Y823752D01*
Y820420D01*
X1219759Y818754D01*
X1214761D01*
X1218093D02*
X1221425Y815422D01*
X1224758Y823752D02*
X1226424Y825418D01*
X1229756D01*
X1231422Y823752D01*
Y822086D01*
X1229756Y820420D01*
X1228090D01*
X1229756D01*
X1231422Y818754D01*
Y817088D01*
X1229756Y815422D01*
X1226424D01*
X1224758Y817088D01*
X1234754Y823752D02*
X1236421Y825418D01*
X1239753D01*
X1241419Y823752D01*
Y817088D01*
X1239753Y815422D01*
X1236421D01*
X1234754Y817088D01*
Y823752D01*
X1070814Y890188D02*
X1074146D01*
X1072480D01*
Y880192D01*
X1070814D01*
X1074146D01*
X1085809Y888522D02*
X1084143Y890188D01*
X1080811D01*
X1079145Y888522D01*
Y881858D01*
X1080811Y880192D01*
X1084143D01*
X1085809Y881858D01*
X1089141Y888522D02*
X1090808Y890188D01*
X1094140D01*
X1095806Y888522D01*
Y886856D01*
X1094140Y885190D01*
X1095806Y883524D01*
Y881858D01*
X1094140Y880192D01*
X1090808D01*
X1089141Y881858D01*
Y883524D01*
X1090808Y885190D01*
X1089141Y886856D01*
Y888522D01*
X1090808Y885190D02*
X1094140D01*
X1244804Y813988D02*
X1248136D01*
X1246470D01*
Y803992D01*
X1244804D01*
X1248136D01*
X1259799Y812322D02*
X1258133Y813988D01*
X1254801D01*
X1253135Y812322D01*
Y805658D01*
X1254801Y803992D01*
X1258133D01*
X1259799Y805658D01*
X1263131Y813988D02*
X1269796D01*
Y812322D01*
X1263131Y805658D01*
Y803992D01*
X1319052Y795334D02*
X1320718Y797001D01*
Y800333D01*
X1319052Y801999D01*
X1312388D01*
X1310722Y800333D01*
Y797001D01*
X1312388Y795334D01*
X1310722Y787004D02*
X1320718D01*
X1315720Y792002D01*
Y785338D01*
X1319052Y782005D02*
X1320718Y780339D01*
Y777007D01*
X1319052Y775341D01*
X1312388D01*
X1310722Y777007D01*
Y780339D01*
X1312388Y782005D01*
X1319052D01*
X1107125Y817402D02*
X1105459Y819068D01*
X1102127D01*
X1100461Y817402D01*
Y810738D01*
X1102127Y809072D01*
X1105459D01*
X1107125Y810738D01*
X1110458Y817402D02*
X1112124Y819068D01*
X1115456D01*
X1117122Y817402D01*
Y815736D01*
X1115456Y814070D01*
X1113790D01*
X1115456D01*
X1117122Y812404D01*
Y810738D01*
X1115456Y809072D01*
X1112124D01*
X1110458Y810738D01*
X1120454D02*
X1122121Y809072D01*
X1125453D01*
X1127119Y810738D01*
Y817402D01*
X1125453Y819068D01*
X1122121D01*
X1120454Y817402D01*
Y815736D01*
X1122121Y814070D01*
X1127119D01*
X1055055Y864392D02*
X1053389Y866058D01*
X1050057D01*
X1048391Y864392D01*
Y857728D01*
X1050057Y856062D01*
X1053389D01*
X1055055Y857728D01*
X1065052Y856062D02*
X1058388D01*
X1065052Y862726D01*
Y864392D01*
X1063386Y866058D01*
X1060054D01*
X1058388Y864392D01*
X1068384Y857728D02*
X1070051Y856062D01*
X1073383D01*
X1075049Y857728D01*
Y864392D01*
X1073383Y866058D01*
X1070051D01*
X1068384Y864392D01*
Y862726D01*
X1070051Y861060D01*
X1075049D01*
X1319052Y762315D02*
X1320718Y763981D01*
Y767313D01*
X1319052Y768979D01*
X1312388D01*
X1310722Y767313D01*
Y763981D01*
X1312388Y762315D01*
X1310722Y752318D02*
Y758982D01*
X1317386Y752318D01*
X1319052D01*
X1320718Y753984D01*
Y757316D01*
X1319052Y758982D01*
Y748985D02*
X1320718Y747319D01*
Y743987D01*
X1319052Y742321D01*
X1317386D01*
X1315720Y743987D01*
X1314054Y742321D01*
X1312388D01*
X1310722Y743987D01*
Y747319D01*
X1312388Y748985D01*
X1314054D01*
X1315720Y747319D01*
X1317386Y748985D01*
X1319052D01*
X1315720Y747319D02*
Y743987D01*
X1312702Y835975D02*
X1314368Y837641D01*
Y840973D01*
X1312702Y842639D01*
X1306038D01*
X1304372Y840973D01*
Y837641D01*
X1306038Y835975D01*
X1304372Y825978D02*
Y832642D01*
X1311036Y825978D01*
X1312702D01*
X1314368Y827644D01*
Y830976D01*
X1312702Y832642D01*
Y822645D02*
X1314368Y820979D01*
Y817647D01*
X1312702Y815981D01*
X1306038D01*
X1304372Y817647D01*
Y820979D01*
X1306038Y822645D01*
X1312702D01*
X1121928Y692942D02*
X1120262Y694608D01*
X1116930D01*
X1115264Y692942D01*
Y686278D01*
X1116930Y684612D01*
X1120262D01*
X1121928Y686278D01*
X1125261Y684612D02*
X1128593D01*
X1126927D01*
Y694608D01*
X1125261Y692942D01*
X1140256Y694608D02*
X1133592D01*
Y689610D01*
X1136924Y691276D01*
X1138590D01*
X1140256Y689610D01*
Y686278D01*
X1138590Y684612D01*
X1135258D01*
X1133592Y686278D01*
X1108477Y530778D02*
Y520782D01*
X1113475D01*
X1115142Y522448D01*
Y529112D01*
X1113475Y530778D01*
X1108477D01*
X1118474Y520782D02*
Y527446D01*
X1121806Y530778D01*
X1125138Y527446D01*
Y520782D01*
Y525780D01*
X1118474D01*
X1128471Y520782D02*
X1131803D01*
X1130137D01*
Y530778D01*
X1128471Y529112D01*
X1118556Y582848D02*
X1111891D01*
Y577850D01*
X1115223D01*
X1111891D01*
Y572852D01*
X1121888Y582848D02*
Y572852D01*
X1126886D01*
X1128552Y574518D01*
Y576184D01*
X1126886Y577850D01*
X1121888D01*
X1126886D01*
X1128552Y579516D01*
Y581182D01*
X1126886Y582848D01*
X1121888D01*
X1138549Y572852D02*
X1131885D01*
X1138549Y579516D01*
Y581182D01*
X1136883Y582848D01*
X1133551D01*
X1131885Y581182D01*
X1274521Y672785D02*
X1276187Y674452D01*
Y677784D01*
X1274521Y679450D01*
X1267856D01*
X1266190Y677784D01*
Y674452D01*
X1267856Y672785D01*
X1266190Y669453D02*
Y666121D01*
Y667787D01*
X1276187D01*
X1274521Y669453D01*
X1267856Y661123D02*
X1266190Y659456D01*
Y656124D01*
X1267856Y654458D01*
X1274521D01*
X1276187Y656124D01*
Y659456D01*
X1274521Y661123D01*
X1272855D01*
X1271188Y659456D01*
Y654458D01*
X1288789Y681262D02*
X1298786D01*
Y676263D01*
X1297119Y674597D01*
X1293787D01*
X1292121Y676263D01*
Y681262D01*
Y677929D02*
X1288789Y674597D01*
Y664600D02*
Y671265D01*
X1295453Y664600D01*
X1297119D01*
X1298786Y666266D01*
Y669599D01*
X1297119Y671265D01*
X1288789Y661268D02*
Y657936D01*
Y659602D01*
X1298786D01*
X1297119Y661268D01*
X1115142Y662381D02*
X1125138D01*
Y657382D01*
X1123472Y655716D01*
X1120140D01*
X1118474Y657382D01*
Y662381D01*
Y659048D02*
X1115142Y655716D01*
X1123472Y652384D02*
X1125138Y650718D01*
Y647385D01*
X1123472Y645719D01*
X1121806D01*
X1120140Y647385D01*
Y649052D01*
Y647385D01*
X1118474Y645719D01*
X1116808D01*
X1115142Y647385D01*
Y650718D01*
X1116808Y652384D01*
X1086164Y676351D02*
X1084498Y678017D01*
X1081166D01*
X1079500Y676351D01*
Y669686D01*
X1081166Y668020D01*
X1084498D01*
X1086164Y669686D01*
X1089497Y668020D02*
X1092829D01*
X1091163D01*
Y678017D01*
X1089497Y676351D01*
X1060764Y603961D02*
X1059098Y605627D01*
X1055766D01*
X1054100Y603961D01*
Y597296D01*
X1055766Y595630D01*
X1059098D01*
X1060764Y597296D01*
X1070761Y595630D02*
X1064097D01*
X1070761Y602295D01*
Y603961D01*
X1069095Y605627D01*
X1065763D01*
X1064097Y603961D01*
X1103944Y442671D02*
X1102278Y444337D01*
X1098946D01*
X1097280Y442671D01*
Y436006D01*
X1098946Y434340D01*
X1102278D01*
X1103944Y436006D01*
X1107277Y442671D02*
X1108943Y444337D01*
X1112275D01*
X1113941Y442671D01*
Y441004D01*
X1112275Y439338D01*
X1110609D01*
X1112275D01*
X1113941Y437672D01*
Y436006D01*
X1112275Y434340D01*
X1108943D01*
X1107277Y436006D01*
X1310954Y499821D02*
X1309288Y501487D01*
X1305956D01*
X1304290Y499821D01*
Y493156D01*
X1305956Y491490D01*
X1309288D01*
X1310954Y493156D01*
X1314287D02*
X1315953Y491490D01*
X1319285D01*
X1320951Y493156D01*
Y499821D01*
X1319285Y501487D01*
X1315953D01*
X1314287Y499821D01*
Y498154D01*
X1315953Y496488D01*
X1320951D01*
X1173794Y659841D02*
X1172128Y661507D01*
X1168796D01*
X1167130Y659841D01*
Y653176D01*
X1168796Y651510D01*
X1172128D01*
X1173794Y653176D01*
X1177127Y651510D02*
X1180459D01*
X1178793D01*
Y661507D01*
X1177127Y659841D01*
X1185457D02*
X1187124Y661507D01*
X1190456D01*
X1192122Y659841D01*
Y653176D01*
X1190456Y651510D01*
X1187124D01*
X1185457Y653176D01*
Y659841D01*
X1176579Y622615D02*
X1174913Y620948D01*
Y617616D01*
X1176579Y615950D01*
X1183244D01*
X1184910Y617616D01*
Y620948D01*
X1183244Y622615D01*
X1184910Y625947D02*
Y629279D01*
Y627613D01*
X1174913D01*
X1176579Y625947D01*
X1184910Y634277D02*
Y637610D01*
Y635944D01*
X1174913D01*
X1176579Y634277D01*
X934462Y866328D02*
X932796Y867994D01*
X929464D01*
X927797Y866328D01*
Y859664D01*
X929464Y857998D01*
X932796D01*
X934462Y859664D01*
X937794Y866328D02*
X939461Y867994D01*
X942793D01*
X944459Y866328D01*
Y864662D01*
X942793Y862996D01*
X941127D01*
X942793D01*
X944459Y861330D01*
Y859664D01*
X942793Y857998D01*
X939461D01*
X937794Y859664D01*
X947791Y866328D02*
X949457Y867994D01*
X952790D01*
X954456Y866328D01*
Y864662D01*
X952790Y862996D01*
X951123D01*
X952790D01*
X954456Y861330D01*
Y859664D01*
X952790Y857998D01*
X949457D01*
X947791Y859664D01*
X1053541Y830266D02*
X1055207Y831932D01*
Y835264D01*
X1053541Y836930D01*
X1046876D01*
X1045210Y835264D01*
Y831932D01*
X1046876Y830266D01*
X1053541Y826933D02*
X1055207Y825267D01*
Y821935D01*
X1053541Y820269D01*
X1051874D01*
X1050208Y821935D01*
Y823601D01*
Y821935D01*
X1048542Y820269D01*
X1046876D01*
X1045210Y821935D01*
Y825267D01*
X1046876Y826933D01*
X1045210Y811938D02*
X1055207D01*
X1050208Y816936D01*
Y810272D01*
X1335085Y822401D02*
X1333418Y824067D01*
X1330086D01*
X1328420Y822401D01*
Y815736D01*
X1330086Y814070D01*
X1333418D01*
X1335085Y815736D01*
X1338417Y814070D02*
X1341749D01*
X1340083D01*
Y824067D01*
X1338417Y822401D01*
X1353412Y824067D02*
X1350080Y822401D01*
X1346747Y819068D01*
Y815736D01*
X1348414Y814070D01*
X1351746D01*
X1353412Y815736D01*
Y817402D01*
X1351746Y819068D01*
X1346747D01*
X1396044Y763981D02*
X1394378Y765647D01*
X1391046D01*
X1389380Y763981D01*
Y757316D01*
X1391046Y755650D01*
X1394378D01*
X1396044Y757316D01*
X1399377Y755650D02*
X1402709D01*
X1401043D01*
Y765647D01*
X1399377Y763981D01*
X1407707Y765647D02*
X1414372D01*
Y763981D01*
X1407707Y757316D01*
Y755650D01*
X1121762Y754677D02*
X1120096Y756343D01*
X1116763D01*
X1115097Y754677D01*
Y748012D01*
X1116763Y746346D01*
X1120096D01*
X1121762Y748012D01*
X1131758Y746346D02*
X1125094D01*
X1131758Y753011D01*
Y754677D01*
X1130092Y756343D01*
X1126760D01*
X1125094Y754677D01*
X1141755Y746346D02*
X1135091D01*
X1141755Y753011D01*
Y754677D01*
X1140089Y756343D01*
X1136757D01*
X1135091Y754677D01*
X1016569Y750011D02*
X1014902Y751677D01*
X1011570D01*
X1009904Y750011D01*
Y743346D01*
X1011570Y741680D01*
X1014902D01*
X1016569Y743346D01*
X1019901Y741680D02*
Y751677D01*
X1024899D01*
X1026565Y750011D01*
Y746678D01*
X1024899Y745012D01*
X1019901D01*
X1023233D02*
X1026565Y741680D01*
X1029898D02*
X1033230D01*
X1031564D01*
Y751677D01*
X1029898Y750011D01*
X1267460Y407507D02*
Y397510D01*
X1272458D01*
X1274125Y399176D01*
Y405841D01*
X1272458Y407507D01*
X1267460D01*
X1284121Y397510D02*
X1277457D01*
X1284121Y404174D01*
Y405841D01*
X1282455Y407507D01*
X1279123D01*
X1277457Y405841D01*
X924723Y739140D02*
X934720D01*
Y744138D01*
X933054Y745805D01*
X926389D01*
X924723Y744138D01*
Y739140D01*
Y755801D02*
Y749137D01*
X929722D01*
X928055Y752469D01*
Y754135D01*
X929722Y755801D01*
X933054D01*
X934720Y754135D01*
Y750803D01*
X933054Y749137D01*
X1063130Y636708D02*
Y640041D01*
Y638374D01*
X1073127D01*
Y636708D01*
Y640041D01*
X1064796Y651703D02*
X1063130Y650037D01*
Y646705D01*
X1064796Y645039D01*
X1071461D01*
X1073127Y646705D01*
Y650037D01*
X1071461Y651703D01*
X1073127Y661700D02*
Y655036D01*
X1066462Y661700D01*
X1064796D01*
X1063130Y660034D01*
Y656702D01*
X1064796Y655036D01*
X1332230Y417830D02*
Y427827D01*
X1337228D01*
X1338895Y426161D01*
Y422828D01*
X1337228Y421162D01*
X1332230D01*
X1335562D02*
X1338895Y417830D01*
X1342227D02*
X1345559D01*
X1343893D01*
Y427827D01*
X1342227Y426161D01*
X1357222Y417830D02*
X1350557D01*
X1357222Y424495D01*
Y426161D01*
X1355556Y427827D01*
X1352224D01*
X1350557Y426161D01*
X898476Y449804D02*
Y459800D01*
X903475D01*
X905141Y458134D01*
Y454802D01*
X903475Y453136D01*
X898476D01*
X901808D02*
X905141Y449804D01*
X908473Y458134D02*
X910139Y459800D01*
X913471D01*
X915137Y458134D01*
Y456468D01*
X913471Y454802D01*
X911805D01*
X913471D01*
X915137Y453136D01*
Y451470D01*
X913471Y449804D01*
X910139D01*
X908473Y451470D01*
X923468Y449804D02*
Y459800D01*
X918470Y454802D01*
X925134D01*
X1247140Y679450D02*
X1257137D01*
Y674452D01*
X1255471Y672785D01*
X1252138D01*
X1250472Y674452D01*
Y679450D01*
Y676118D02*
X1247140Y672785D01*
Y662789D02*
Y669453D01*
X1253804Y662789D01*
X1255471D01*
X1257137Y664455D01*
Y667787D01*
X1255471Y669453D01*
Y659456D02*
X1257137Y657790D01*
Y654458D01*
X1255471Y652792D01*
X1248806D01*
X1247140Y654458D01*
Y657790D01*
X1248806Y659456D01*
X1255471D01*
X911860Y480060D02*
Y490057D01*
X916858D01*
X918524Y488391D01*
Y485058D01*
X916858Y483392D01*
X911860D01*
X915192D02*
X918524Y480060D01*
X921857Y488391D02*
X923523Y490057D01*
X926855D01*
X928521Y488391D01*
Y486725D01*
X926855Y485058D01*
X925189D01*
X926855D01*
X928521Y483392D01*
Y481726D01*
X926855Y480060D01*
X923523D01*
X921857Y481726D01*
X931854Y490057D02*
X938518D01*
Y488391D01*
X931854Y481726D01*
Y480060D01*
X911860Y784697D02*
X918524D01*
X915192D01*
Y774700D01*
X921857D02*
X925189D01*
X923523D01*
Y784697D01*
X921857Y783031D01*
X830580Y835497D02*
Y825500D01*
X835578D01*
X837244Y827166D01*
Y833831D01*
X835578Y835497D01*
X830580D01*
X845575Y825500D02*
Y835497D01*
X840577Y830498D01*
X847241D01*
X964245Y623966D02*
Y630631D01*
X962578Y632297D01*
X959246D01*
X957580Y630631D01*
Y623966D01*
X959246Y622300D01*
X962578D01*
X960912Y625632D02*
X964245Y622300D01*
X962578D02*
X964245Y623966D01*
X967577Y622300D02*
X970909D01*
X969243D01*
Y632297D01*
X967577Y630631D01*
X982025Y412191D02*
X980358Y413857D01*
X977026D01*
X975360Y412191D01*
Y405526D01*
X977026Y403860D01*
X980358D01*
X982025Y405526D01*
X985357Y412191D02*
X987023Y413857D01*
X990355D01*
X992021Y412191D01*
Y410524D01*
X990355Y408858D01*
X988689D01*
X990355D01*
X992021Y407192D01*
Y405526D01*
X990355Y403860D01*
X987023D01*
X985357Y405526D01*
X995354Y413857D02*
X1002018D01*
Y412191D01*
X995354Y405526D01*
Y403860D01*
X937260D02*
Y413857D01*
X942258D01*
X943924Y412191D01*
Y408858D01*
X942258Y407192D01*
X937260D01*
X940592D02*
X943924Y403860D01*
X947257Y412191D02*
X948923Y413857D01*
X952255D01*
X953921Y412191D01*
Y410524D01*
X952255Y408858D01*
X950589D01*
X952255D01*
X953921Y407192D01*
Y405526D01*
X952255Y403860D01*
X948923D01*
X947257Y405526D01*
X957254Y412191D02*
X958920Y413857D01*
X962252D01*
X963918Y412191D01*
Y410524D01*
X962252Y408858D01*
X963918Y407192D01*
Y405526D01*
X962252Y403860D01*
X958920D01*
X957254Y405526D01*
Y407192D01*
X958920Y408858D01*
X957254Y410524D01*
Y412191D01*
X958920Y408858D02*
X962252D01*
X1360170Y443230D02*
Y453227D01*
X1365168D01*
X1366835Y451561D01*
Y448228D01*
X1365168Y446562D01*
X1360170D01*
X1363502D02*
X1366835Y443230D01*
X1370167Y444896D02*
X1371833Y443230D01*
X1375165D01*
X1376831Y444896D01*
Y451561D01*
X1375165Y453227D01*
X1371833D01*
X1370167Y451561D01*
Y449894D01*
X1371833Y448228D01*
X1376831D01*
D19*
X936260Y847142D02*
D03*
X975510D02*
D03*
X994741D02*
D03*
X1033990D02*
D03*
M02*
