M48
;Layer_Color=9474304
;FILE_FORMAT=4:4
METRIC,LZ
;TYPE=PLATED
T1F00S00C0.3000
T2F00S00C0.9000
T3F00S00C2.7500
%
T01
X01218552Y00414642
X01236298Y00456518
X0123825Y0047117
X0125603
X01274335Y00471221
X012954Y004826
X0126492Y0050165
X01247299Y00502057
X0121031Y0049149
X01199597Y00470797
X01190691Y00468585
X01234028Y00556672
X012573Y005588
X012827
X013081
X013335
X013208Y005334
X012954
Y005842
X013208
X013335Y006096
X013081
X012827
X012573
X012319
X012446Y005842
X0127
X012192
X01197344Y00645533
X0119761Y0065278
X0119126Y0065786
X01225222Y0070338
X0125095Y0070246
X0126365Y0068072
X012827Y0066072
X013081Y006604
X013335
X013589
X013462Y006858
X013208
X013335Y007112
X013589
X013843
X014097
X01397Y007366
X014097Y00762
X01397Y007874
X0137106Y0079019
Y0077509
X013335Y00762
X0133096Y0074549
X0132334
X0131572
X013208Y007874
X0127254Y0077216
X01259454Y0076
X01252959Y00760189
X01244302Y00784659
X01236461Y00778903
X01234524Y00745452
X01202891Y00741881
X013208Y00635
X013462
X014097Y006604
X01397Y006858
X014097Y006096
Y00508
X01397Y004826
X014097Y004572
X013843
X01397Y004318
X0137414Y0042291
X0133223Y0042672
X013335Y00508
X0117094Y005207
X0117221Y0053467
X0115697
Y005461
X0116459Y0054991
X0114173Y0053467
X01151565Y00520332
X01156766Y00470966
X0116459Y004699
X0116713Y0041656
X01157446Y00419576
X01151194Y00413567
X0118364Y0041529
X01110102Y00414591
X0108585Y0041529
Y0042926
Y0044069
X01016Y004318
X01011176Y00449417
X0101092Y0046482
X0099568
X00994531Y00436938
X00969425Y00437425
X0095504Y0046863
X0094996Y00494983
X00951992Y0051354
X0099314Y005207
X01003452Y00517946
X0101346Y0050419
X0102616Y0046482
X0099314Y0054102
X0098298Y0055245
X0095817Y0060085
X0092964Y0066294
X009144
X009017Y006604
X0090232Y00673162
X00889Y0066675
X008763Y006731
Y006604
X008128Y0066675
X008001Y0067183
Y006604
X0080645Y00597583
Y0058547
Y0053863
Y00526517
X00838198Y00561903
X0086868Y0056155
X00868622Y0057539
X0088392Y0057658
X0090424Y0056388
X008763Y004572
X009144Y004318
X008382Y004826
X0084074Y0075057
X0085598
X008509Y00762
X008255
X0081915Y0075184
X0080137Y0075057
X008001Y00762
X0080137Y007366
X008128
X008763Y0073279
X00889Y007366
X009144
Y0076962
X009271Y00762
X0093472Y0076962
Y0079121
X009144
X009017Y00762
X008763
Y0075057
X0098425Y0076962
X00985125Y00781643
X009906Y007874
X0099695Y0076073
X0101473
X0103759Y00762
X0103886Y007747
Y007874
X010541
Y007747
Y00762
X0106934
Y007747
Y007874
X0108458
Y007747
Y00762
X011176Y007874
X01143
X0115697Y0078359
X01147828Y00767786
X01168211Y00759649
X01174706Y0075946
X01143Y007366
X0114427Y0072263
X0113538Y007239
X0113919Y0071374
X01166822Y00703479
X0118491Y0069723
Y0067945
X0117983Y0067183
X011684Y0067437
X01160292Y00676048
X0114666Y00649051
X0113157Y0065659
X0110871
X0109093Y0062738
Y0061468
X0111379Y0059944
X01125343Y00601857
X01138662Y00576667
X01149913Y0057643
X011303Y005588
X01167992Y0059832
X01176883Y00598787
X0118745Y0065151
X010668Y00635
Y005842
X0106553Y0068453
X0105156Y0069215
X0101854Y0070104
X0102108Y0070866
X0101092
X01001341Y00717766
X0098171Y0072644
X007874Y007366
X00782451Y00473339
X0078232Y0046228
Y0044958
X00782451Y00438909
X0088392Y0081026
X0089789
X0091313
X00889Y008382
X0094234Y0089281
X0095631
X0097282
Y0088138
X0103886Y0079756
X010541
X0106934
X0108458
X011049Y008128
X011303
X01143Y008382
X012319Y008636
X013208Y008382
X013081Y008128
X014097
T02
X0085671Y0036465
Y0039005
X0088211
Y0036465
X0090751
Y0039005
X0093291
X0095831
X0098371
X0100911
X0103451
X0105991
X0108531
X0111071
X0113611
X0116151
X0118691
Y0036465
X0116151
X0113611
X0111071
X0108531
X0105991
X0103451
X0100911
X0098371
X0095831
X0093291
X0121231
X0123771
X0126311
X0128851
X0131391
X0133931
Y0039005
X0131391
X0128851
X0126311
X0123771
X0121231
X0137414Y005461
Y005715
Y005969
Y006223
Y006477
Y006731
Y006985
X0082071Y0045145
Y0042605
X0079531
Y0045145
X01160427Y0087122
X01185827
X01211227
X01245872
X01271272
X01296672
T03
X0080801Y0037735
X0138801
X0080801Y0086735
X0138801
M30
